<svg width="80" height="44" viewBox="0 0 80 44" fill="none" xmlns="http://www.w3.org/2000/svg">
<path d="M15.6333 0.63263C14.7236 0.898556 13.8156 2.02247 13.1698 2.6714C12.7598 3.05607 12.3498 3.46918 11.968 3.91239C11.704 4.20842 11.03 4.79881 10.9703 5.21192C11.0002 5.24202 11.0002 5.24202 11.03 5.24202L10.6184 5.77387C10.5901 5.80398 10.8541 5.36077 10.8823 5.33066C10.7362 5.3892 10.5022 5.92105 10.5022 5.92105C9.68045 6.98476 8.77242 7.95982 8.00881 9.08207C7.15888 10.3532 6.45503 11.6527 5.78106 13.0124C6.13299 11.6527 6.63099 10.3532 7.129 9.05363L6.42515 10.5589L6.71897 9.87985C5.75118 11.6828 4.93113 13.5727 4.34348 15.5228C5.51712 11.5339 7.15888 7.36943 9.73855 3.08451C9.65057 3.26179 9.56259 3.49928 9.59247 3.49928C9.71033 3.52772 10.2963 2.37704 10.2083 2.34694L10.1204 2.40547C10.2963 2.08101 10.3843 1.90372 10.2083 1.43041C10.0324 0.958766 9.59247 0.130882 8.9766 0.396808C8.59646 0.543988 8.27275 1.25312 8.12667 1.54916C8.03869 1.69634 8.00881 1.93383 7.92083 2.0509C7.80463 2.22819 7.59878 2.31683 7.42282 2.55432C7.04102 3.14471 6.77707 3.85385 6.51313 4.50278C6.36705 4.85735 4.75517 8.37293 4.81327 8.40303C4.87137 8.37293 4.90125 8.31439 4.93113 8.25585C4.84315 8.52178 4.72529 8.78771 4.60743 9.05363C4.5792 9.02353 4.69541 8.81614 4.63731 8.81614C4.37336 8.7576 3.49355 11.2095 3.43545 11.4453C3.31759 12.0073 3.17151 12.509 2.93578 13.071C2.7897 13.4255 2.64362 13.7801 2.52576 14.1347C2.52576 14.1631 2.37968 14.9023 2.49588 14.6364C2.49588 14.7251 2.46766 14.7836 2.43778 14.8722C2.43778 14.8438 2.43778 14.7836 2.4079 14.7552C2.3498 14.7836 2.17383 15.67 2.11573 15.7888C1.90989 16.232 1.67583 16.6752 1.49986 17.1485C1.05996 18.3878 0.854116 19.6589 0.561952 20.9584C0.35611 21.9335 -0.289639 23.499 0.150267 24.474C0.561952 25.3906 1.96799 25.3303 2.61374 24.6513C2.61374 24.7115 2.64362 24.74 2.67184 24.7701C2.96566 22.554 3.81559 20.3095 4.69541 18.2406C4.87137 18.5651 4.78339 18.714 4.90125 19.097C5.04733 19.689 5.42914 20.1908 5.69308 20.7226C5.80928 20.9584 7.129 23.5592 7.18876 23.5291C7.21698 23.4705 7.18876 23.4103 7.18876 23.3819C7.27674 23.5876 7.39294 23.7649 7.5108 23.9723C7.48092 23.9723 7.42282 23.8251 7.36472 23.8535C7.129 24.0308 8.36073 25.7736 8.50848 25.8923C8.83052 26.277 9.12434 26.6315 9.38663 27.0145C9.56259 27.252 9.71033 27.4879 9.91451 27.6651C9.9444 27.6952 10.2963 27.9612 10.2382 27.8424C10.2664 27.8725 10.3262 27.901 10.3544 27.9612C10.3544 27.9612 10.3262 27.9311 10.2963 27.9311C10.2664 28.0197 11.6741 29.3493 11.792 29.438C12.3199 29.7624 12.9059 29.9698 13.5217 29.9096C15.1934 29.7624 16.4832 28.3157 17.4211 27.1032C17.6569 26.8088 17.7731 26.5713 17.7448 26.2469C17.6851 25.4491 17.3929 25.8338 17.129 26.1281C16.6293 26.66 15.6914 27.252 14.9294 27.252C14.6356 27.2805 14.3435 27.1634 14.0496 27.0446C13.9318 26.9861 12.9059 26.3656 12.9059 26.394C12.9358 26.4543 12.964 26.5429 13.0237 26.6014C12.5257 26.1883 11.9978 25.4491 11.5281 24.9172L9.50449 22.5841C9.24055 22.2881 7.36472 19.6004 6.54301 18.2406L7.48092 19.9248C6.95304 19.097 6.48491 18.2406 6.01512 17.3542C7.48092 17.4429 9.24055 16.2905 10.4424 15.5228C11.5281 14.7836 12.3498 13.6028 13.2877 12.5692C15.1635 10.589 16.9231 8.16721 17.4211 5.3892C16.7472 9.23092 14.4597 12.2431 11.616 14.7251C12.5539 14.4892 13.4919 13.3954 14.1376 12.7164C14.8713 12.0073 15.5154 11.1794 16.1313 10.3532C16.8351 9.3781 17.4211 8.31439 17.8328 7.16204C18.0088 6.71883 18.6246 5.41931 18.5068 4.82892C18.5068 4.82892 18.4188 5.03463 18.3607 5.18348C18.4487 4.68006 18.5068 4.20842 18.4769 3.67657C18.5068 3.79364 18.5649 3.97093 18.5367 4.00103C18.5948 3.97093 18.5649 3.58793 18.5649 3.43907C18.5649 3.43907 18.5367 3.23336 18.5649 3.29189C18.4487 1.87362 17.1572 0.189419 15.6333 0.63263ZM15.6034 4.23685C15.5752 4.3556 15.5752 4.3255 15.6034 4.26696C15.4573 6.30573 14.3136 8.31439 13.1698 9.94006C12.5838 10.7964 11.9099 11.5942 11.206 12.3618C10.8823 12.6863 10.5304 13.0124 10.1785 13.3068C9.91451 13.5727 9.35841 13.8687 9.09446 14.1932C9.32853 13.9574 9.85641 13.6614 10.0905 13.4841C10.5603 13.071 11.03 12.5976 11.47 12.1544C12.1738 11.3868 12.8478 10.589 13.4338 9.73267C11.6459 12.4204 9.18245 14.7552 6.22097 15.9962C6.45503 15.8473 7.04102 15.5529 7.04102 15.5228C6.98292 15.4643 5.80928 15.9962 5.69308 16.0547C6.07322 15.287 6.45503 14.5177 6.86505 13.75C6.98292 13.5727 7.92083 11.7714 7.92083 11.7714C7.86273 11.7714 7.80463 11.7999 7.77475 11.8885C9.06458 9.7912 10.7661 7.6939 12.3498 5.77387C12.8478 5.18348 15.7512 1.37187 15.6034 4.20842V4.23685ZM8.71266 5.41931C8.77242 5.30056 9.03636 4.62153 8.9766 4.74027L8.21465 6.4228C8.39061 6.09834 8.56658 5.77387 8.71266 5.41931ZM6.19109 17.5014C6.13298 17.5315 6.30895 17.8275 6.54301 18.2406C6.33717 17.8275 6.16121 17.5014 6.19109 17.5014ZM8.27275 21.1056C8.27275 21.1056 8.27275 21.0772 8.30263 21.1357V21.1658L8.27275 21.1056ZM7.5108 12.3033C7.5108 12.2732 7.54068 12.2732 7.54068 12.2431C7.54068 12.2732 7.5108 12.3033 7.5108 12.3033Z" fill="white"/>
<path d="M28.212 15.6114C28.212 15.6415 28.212 15.6415 28.1837 15.6114V15.5813C27.7139 14.7835 27.0981 15.8773 26.8341 16.262C26.3361 16.941 25.8663 17.5899 25.3385 18.2104C24.8985 18.7423 24.4304 19.2741 24.0785 19.8361C24.0785 19.8946 24.0187 20.0435 24.0187 20.0435C23.9025 20.2208 23.7266 20.368 23.5788 20.5452C23.3149 20.8112 23.0509 21.1055 22.7588 21.3715C22.3189 21.7862 19.8554 24.1194 19.5334 22.6124C19.3574 21.8749 19.5915 20.9583 19.7375 20.2492C19.8255 19.8662 19.9135 19.5116 19.9733 19.127C20.0314 18.8309 19.9434 18.5366 20.0895 18.2405C20.1774 18.0633 20.2073 18.0934 20.4132 18.0332L20.9112 17.8559C21.2332 17.7388 21.5569 17.6201 21.8491 17.4428C22.289 17.1768 22.699 16.8524 23.0808 16.5279C23.9905 15.7586 24.9583 14.8437 25.3385 13.6914C25.5443 13.0408 25.5742 12.3316 25.1625 11.7713C24.7823 11.2679 24.1366 11.002 23.5506 10.8849C21.9669 10.5889 20.7651 11.5054 19.8554 12.7163C18.7415 14.1045 17.9497 15.8188 17.5679 17.5615C17.3637 18.4178 17.2458 19.2741 17.0998 20.1606C16.952 21.047 16.864 21.8749 17.3338 22.7011C17.3039 22.4067 17.2458 22.1408 17.2458 21.8749C17.2458 21.726 17.3039 21.5788 17.3039 21.4601C17.3039 21.4016 17.2458 21.2243 17.2458 21.1356C17.2458 20.8697 17.3039 20.664 17.3637 20.3981C17.3919 20.1321 17.3637 19.8662 17.3919 19.6003C17.4218 19.3043 17.5397 19.0684 17.6559 18.8025C17.7439 18.565 17.7737 18.3593 17.8617 18.1218C17.9497 17.9161 18.0078 17.6786 18.0958 17.4428C18.1257 17.2956 18.2717 17.1183 18.3597 16.941C18.2717 17.2069 18.0958 17.4428 18.0377 17.6786C17.9497 18.0332 18.0078 18.4178 17.9796 18.7724C17.9198 19.1571 17.8036 19.5401 17.7439 19.9549C17.6858 20.3379 17.5098 20.6924 17.4517 21.0771C17.3919 21.4317 17.2757 21.6976 17.3039 22.0522C17.3039 22.2579 17.3338 22.4653 17.3637 22.6426C17.3919 22.8784 17.5397 23.0272 17.6858 23.2045C18.1838 23.7949 18.8577 24.2682 19.6213 24.4739C20.1492 24.6228 20.6174 24.5927 21.117 24.3268C21.8209 23.9421 22.4367 23.3517 22.963 22.7897C23.4626 22.2294 23.8428 21.6089 24.2827 21.0186C24.6944 20.4867 25.1924 19.9833 25.6024 19.4514L27.1861 17.3842L28.0958 16.1733C28.2418 15.9961 28.3298 15.8472 28.212 15.6114ZM20.9411 15.9359C20.9693 15.8773 20.9693 15.8472 20.9693 15.8472C21.4092 14.9023 21.7329 13.8971 22.3488 12.9822L22.875 12.2731C22.9928 12.1259 23.1987 11.86 23.4029 11.7998C23.8428 11.7111 23.9606 12.4805 23.9308 12.7748L23.8146 13.3953C23.7847 13.5726 23.8428 13.6914 23.8146 13.8385C23.7548 14.0158 23.6087 14.1045 23.5207 14.2517L23.0227 14.9023C22.3488 15.7 21.4972 16.3791 20.5593 16.8825C20.7053 16.5563 20.7933 16.2319 20.9411 15.9359Z" fill="white"/>
<path d="M37.8883 17.4428C38.1523 17.0598 39.2081 15.9359 38.7682 15.4341C38.1822 14.8437 36.6566 17.2956 36.4226 17.59C35.9544 18.2105 35.4548 18.8025 34.9866 19.3929C34.7227 19.7174 34.4587 20.0435 34.1649 20.3379C34.1068 20.3981 33.5491 21.1056 33.6072 21.1056C33.6951 21.0771 33.7831 21.0186 33.8711 20.9584C33.3731 21.4902 32.6991 21.9635 32.0833 22.4352C31.6732 22.7312 30.8814 23.3818 30.3817 23.0273C30.1775 22.9085 30.1178 22.6125 30.0597 22.4068C29.8538 21.4902 30.0016 20.3981 30.1477 19.4515C30.4697 17.4729 31.1155 15.5228 31.9073 13.6613C32.2891 12.805 32.6692 11.9487 33.3432 11.2981C33.403 11.2395 33.5192 11.3566 33.5491 11.3282C33.6072 11.2981 33.3731 11.2094 33.3432 11.2395C33.0212 11.4168 32.8153 11.7714 32.641 12.0958C32.1131 12.9522 31.7014 13.8971 31.3495 14.8437C31.6135 14.1045 31.9073 13.3669 32.2592 12.6277C32.4651 12.243 32.6991 11.6225 33.0793 11.3282C34.0769 10.5304 33.6951 13.1595 33.5789 13.5442C33.5789 13.5141 33.6951 12.8635 33.6669 12.8635C33.6072 12.8635 33.1971 14.3704 33.1971 14.3704L33.3432 14.2517C33.1971 14.4892 32.9033 14.6665 33.2851 14.9324C33.7549 15.2568 34.6629 14.6949 34.8688 14.2818C35.0746 13.8386 35.1327 13.2482 35.1626 12.805C35.2207 12.0373 35.0149 11.5941 34.7509 11.002C34.4587 10.3815 34.1948 9.99853 33.403 9.87978C32.7572 9.79114 32.1712 10.0571 31.6732 10.4417C30.9395 10.9736 30.3817 11.6526 29.9136 12.4203C29.7957 12.6277 28.74 14.7835 28.7698 14.8136L28.8877 14.6665C28.74 14.9909 28.652 15.3154 28.5358 15.6114C28.5059 15.6114 28.5939 15.3455 28.564 15.3455C28.388 15.3154 27.8602 16.9411 27.8319 17.0882C27.6261 17.7087 27.48 18.3292 27.4501 18.9798C27.4203 19.689 27.3041 20.3981 27.2742 21.1357C27.2742 21.5203 27.2742 21.9334 27.3323 22.3181C27.3323 22.4352 27.568 23.0557 27.568 22.8784L27.7141 23.3818C27.6842 23.3517 27.568 23.0557 27.568 23.0557C27.4203 23.233 28.2121 24.3853 28.388 24.5626C28.6238 24.8285 28.9757 24.9473 29.326 25.0058C30.4996 25.153 31.6135 24.474 32.4651 23.7648C33.9309 22.5238 35.3668 20.9885 36.4524 19.3929C36.8923 18.7139 37.3903 18.0934 37.8883 17.4428ZM29.2977 15.287C29.238 15.5813 29.15 15.9074 29.0338 16.1734C28.9458 16.3791 28.6819 16.5564 28.652 16.7052C28.7117 16.2018 29.0919 15.7001 29.326 15.1381C29.326 15.1983 29.2977 15.2568 29.2977 15.287ZM28.2121 18.7423C28.0959 18.9497 28.0959 19.3344 28.0959 19.6589C28.066 19.3043 28.066 18.9196 28.1839 18.565C28.1839 18.565 28.2718 18.6838 28.2121 18.7423ZM30.3236 18.0332C30.4415 17.5615 30.5876 17.0882 30.7337 16.6166L30.3236 18.0332ZM28.2718 18.182C28.242 18.2707 28.1839 18.3878 28.1839 18.448C28.1839 18.2991 28.1839 18.1519 28.3299 18.0934L28.2718 18.182ZM30.8515 16.262C30.8216 16.2905 30.8216 16.2905 30.8216 16.3206C30.8216 16.262 30.8216 16.2018 30.8515 16.1433V16.262Z" fill="white"/>
<path d="M49.1191 15.6114C49.1191 15.6415 49.1191 15.6415 49.0908 15.6114V15.5813C48.621 14.7835 48.0052 15.8773 47.7412 16.262C47.2432 16.941 46.7734 17.5899 46.2456 18.2104C45.8057 18.7423 45.3375 19.2741 44.9856 19.8361C44.9856 19.8946 44.9258 20.0435 44.9258 20.0435C44.8096 20.2208 44.6337 20.368 44.4859 20.5452C44.222 20.8112 43.958 21.1055 43.6659 21.3715C43.226 21.7862 40.7625 24.1194 40.4405 22.6124C40.2645 21.8749 40.4986 20.9583 40.6446 20.2492C40.7326 19.8662 40.8206 19.5116 40.8804 19.127C40.9385 18.8309 40.8505 18.5366 40.9966 18.2405C41.0846 18.0633 41.1144 18.0934 41.3203 18.0332L41.8183 17.8559C42.1403 17.7388 42.464 17.6201 42.7562 17.4428C43.1961 17.1768 43.6061 16.8524 43.9879 16.5279C44.8976 15.7586 45.8654 14.8437 46.2456 13.6914C46.4514 13.0408 46.4813 12.3316 46.0696 11.7713C45.6895 11.2679 45.0437 11.002 44.4577 10.8849C42.8741 10.5889 41.6722 11.5054 40.7625 12.7163C39.6486 14.1045 38.8568 15.8188 38.475 17.5615C38.2708 18.4178 38.153 19.2741 38.0069 20.1606C37.8591 21.047 37.7711 21.8749 38.2409 22.7011C38.2111 22.4067 38.153 22.1408 38.153 21.8749C38.153 21.726 38.2111 21.5788 38.2111 21.4601C38.2111 21.4016 38.153 21.2243 38.153 21.1356C38.153 20.8697 38.2111 20.664 38.2708 20.3981C38.299 20.1321 38.2708 19.8662 38.299 19.6003C38.3289 19.3043 38.4468 19.0684 38.563 18.8025C38.651 18.565 38.6808 18.3593 38.7688 18.1218C38.8568 17.9161 38.9149 17.6786 39.0029 17.4428C39.0328 17.2956 39.1788 17.1183 39.2668 16.941C39.1788 17.2069 39.0029 17.4428 38.9448 17.6786C38.8568 18.0332 38.9149 18.4178 38.8867 18.7724C38.8269 19.1571 38.7107 19.5401 38.651 19.9549C38.5929 20.3379 38.4169 20.6924 38.3588 21.0771C38.299 21.4317 38.1828 21.6976 38.2111 22.0522C38.2111 22.2579 38.2409 22.4653 38.2708 22.6426C38.299 22.8784 38.4468 23.0272 38.5929 23.2045C39.0909 23.7949 39.7648 24.2682 40.5284 24.4739C41.0563 24.6228 41.5245 24.5927 42.0241 24.3268C42.728 23.9421 43.3438 23.3517 43.8701 22.7897C44.3697 22.2294 44.7499 21.6089 45.1898 21.0186C45.6015 20.4867 46.0995 19.9833 46.5095 19.4514L48.0932 17.3842L49.0029 16.1733C49.1489 15.9961 49.2369 15.8472 49.1191 15.6114ZM41.8482 15.9359C41.8764 15.8773 41.8764 15.8472 41.8764 15.8472C42.3163 14.9023 42.64 13.8971 43.2559 12.9822L43.7821 12.2731C43.8999 12.1259 44.1058 11.86 44.31 11.7998C44.7499 11.7111 44.8677 12.4805 44.8379 12.7748L44.7217 13.3953C44.6918 13.5726 44.7499 13.6914 44.7217 13.8385C44.6619 14.0158 44.5158 14.1045 44.4278 14.2517L43.9298 14.9023C43.2559 15.7 42.4043 16.3791 41.4664 16.8825C41.6124 16.5563 41.7004 16.2319 41.8482 15.9359Z" fill="white"/>
<path d="M55.8637 15.6416C55.8056 15.2569 55.394 15.3756 55.1898 15.5228C54.9258 15.7001 53.46 17.6502 53.5762 17.7974C53.6642 17.7974 53.7223 17.7974 53.7821 17.7389C53.372 18.2406 52.6084 18.8026 52.0523 19.2458C51.7286 19.5117 50.9368 20.2493 50.4687 20.0135C49.471 19.5117 51.4946 15.966 51.4066 15.9359C51.3186 15.9075 50.5849 17.5616 50.4388 17.9446C50.7907 16.911 51.2605 15.8774 51.8166 14.9609C51.7884 15.0495 51.7004 15.1983 51.7585 15.1983C51.8166 15.2268 52.2565 14.6063 52.1685 14.5477C52.1403 14.5477 52.0805 14.5477 52.0523 14.5779C52.1403 14.4892 52.2864 14.4591 52.2864 14.2818C52.2864 13.9858 51.6124 13.6914 51.3767 13.6028C50.8206 13.367 50.2628 13.3068 49.8229 13.6028C49.2369 13.9574 49.1191 14.6665 48.885 15.287C48.8269 15.4643 48.2691 17.5616 48.387 17.59C48.4451 17.5616 48.4451 17.5315 48.475 17.4729L48.387 18.0048C48.3571 18.0048 48.4152 17.8559 48.3571 17.8559C48.1231 17.8559 48.1812 18.9196 48.211 19.0685C48.3272 19.6003 48.7389 19.9833 49.061 20.4266C49.2369 20.6925 49.4129 20.9584 49.6768 21.1357C50.0288 21.4016 49.7947 21.1357 50.0288 21.2544H49.9707C49.9408 21.4317 51.0547 21.7261 51.2887 21.6977C52.3163 21.4602 53.0483 20.1907 53.636 19.393C54.1921 18.6838 54.6619 17.9747 55.1599 17.2371C55.4537 16.8524 55.9816 16.2018 55.8637 15.6416ZM50.7326 11.9186C50.7907 12.0072 50.7027 12.126 50.9086 12.2431C51.1128 12.3317 51.2306 12.2146 51.4066 12.1544C51.7585 12.0072 52.0224 11.6226 52.2864 11.3867C52.3744 11.3282 52.1984 11.3566 52.1984 11.3566C52.5802 11.0021 52.2565 11.4168 52.6084 11.2094C52.9604 10.9736 53.0201 10.589 53.3123 10.2645C52.9604 10.4117 52.6964 10.6191 52.4624 10.9134C52.1685 11.2981 51.9643 11.4754 51.6406 11.6828C51.9926 11.4168 52.1685 11.1509 52.4624 10.6776C52.5503 10.589 52.6383 10.5304 52.7562 10.4702C52.6682 10.3816 52.6682 10.2929 52.7844 10.2043C52.8724 10.0571 53.0483 9.99856 53.1363 9.85138C53.2841 9.644 53.2542 9.37807 53.4301 9.17068C53.5762 9.05361 53.7821 8.96496 53.8983 8.84622C54.1622 8.61039 54.456 8.16718 54.3382 7.78251C54.222 7.42794 53.9282 6.98473 53.6061 6.77734C53.2243 6.57162 52.6964 6.48298 52.2864 6.66027C52.1984 6.6887 51.8465 6.77734 51.9643 6.89609C51.9926 6.95463 52.0224 6.95463 52.0805 6.95463C51.8166 7.16202 51.3767 7.51658 51.9926 7.75241C51.9345 7.81262 51.9926 8.07854 51.9926 8.10697C51.9643 8.31436 51.5527 9.40817 51.2887 9.94003L51.6406 9.40817C51.4365 9.85138 51.2007 10.2645 50.9368 10.6191C51.1128 10.2344 50.7608 10.6776 50.7608 10.7662C50.4388 10.6191 50.5268 11.5339 50.5566 11.6226C50.5566 11.6527 50.7326 11.9186 50.7326 11.9186ZM50.1748 18.9497V18.9799L50.1167 19.1571L50.1748 18.9196C50.2047 18.8912 50.2047 18.8912 50.1748 18.9497ZM51.1426 10.1758C51.1426 10.1758 51.2007 10.1156 51.2605 9.99856L51.1426 10.1758ZM50.8488 10.7361C50.8488 10.7662 50.8488 10.7662 50.8206 10.7963C50.8206 10.7963 50.8206 10.7662 50.7907 10.7662C50.8206 10.7662 50.8206 10.7662 50.8488 10.7361Z" fill="white"/>
<path d="M66.8017 7.54667C66.7718 7.13189 66.3319 7.45803 66.0979 7.45803C64.9242 7.51656 63.7523 7.51656 62.6085 7.5751C62.6085 7.54667 62.6666 7.42792 62.7546 7.25064C62.6367 7.45803 62.5488 7.5751 62.4608 7.5751C63.3406 5.77383 64.2785 3.97088 65.394 2.31678C65.3641 2.37699 64.9242 3.11456 64.9541 3.11456C65.0421 3.14467 66.1261 1.63775 66.156 1.43036C66.156 1.31328 65.892 1.60764 65.892 1.57921C66.068 1.40193 66.3618 1.25308 66.4498 1.01725C66.654 0.426864 66.0381 0.160937 65.5982 0.072295C64.6902 -0.104989 63.6643 0.0120856 63.0766 0.781432C62.5205 1.46046 62.1088 2.25824 61.7569 3.05602C61.581 3.41059 61.3469 3.49923 61.1128 3.8237C60.7609 4.32545 60.5252 4.91751 60.2629 5.47779C60.0272 5.98122 59.7931 6.5114 59.5873 7.04325C59.4711 7.30918 59.4711 7.51656 59.2071 7.60521C58.9432 7.72395 58.4435 7.63531 58.1514 7.66374C57.0076 7.8126 55.8937 7.75239 54.75 7.87113C54.1623 7.90124 53.5763 7.90124 53.0202 8.10695C52.9024 8.13706 52.2566 8.28424 52.1985 8.37288C52.0226 8.69902 52.7264 8.72745 52.8725 8.75755C53.9864 8.90473 55.3941 9.02348 56.5096 8.81609C57.2715 8.66891 58.0634 8.72745 58.8834 8.66891C58.4734 9.55533 58.1514 10.5003 57.8276 11.4453L57.4757 12.4805C57.3595 12.805 56.9777 13.4255 56.9777 13.7801C56.9777 13.8386 57.0657 13.6914 57.1238 13.5442C56.9777 13.9858 56.8018 14.429 56.6856 14.8722C56.6856 14.8438 56.7719 14.4892 56.7437 14.4892C56.5976 14.4892 56.0099 16.2905 55.9518 16.4393C55.658 17.3257 55.336 18.2105 55.1899 19.1571C55.0139 20.1021 54.7782 21.0186 54.574 21.9335C54.4561 22.4068 54.3383 22.85 54.2802 23.3216C54.2221 23.5591 54.1623 23.825 54.1623 24.0609C54.1623 24.1194 54.1623 24.5041 54.2221 24.3853L54.1623 24.9757V24.5342C53.9864 24.7399 54.1623 25.6849 54.1922 25.8621C54.3101 26.4542 54.6022 26.9861 55.1301 27.3406C55.5999 27.6952 56.3336 28.0197 56.8897 27.7537C57.6235 27.3992 58.2393 26.5713 58.7075 25.9809C59.735 24.77 60.6729 23.4989 61.6108 22.2295C62.4608 21.047 63.3406 19.8947 64.0743 18.6537C64.4843 17.9446 65.2762 17.2956 65.5401 16.4979C65.6862 16.1132 65.5982 15.6415 65.1301 15.7302C64.7483 15.8188 64.2204 16.8524 63.9863 17.1485C62.9306 18.4764 61.9329 19.8362 60.8771 21.1658L59.1772 23.2631C58.9133 23.5591 58.6494 23.8836 58.3555 24.1796C58.2393 24.3268 57.5056 24.9172 57.5355 25.0945C57.5355 25.153 57.8575 24.8871 57.9754 24.7984C57.8276 24.9757 57.6517 25.1246 57.5056 25.2718C57.5355 25.2417 56.9196 25.5962 56.8316 25.5377C56.2739 25.3019 56.7719 23.5876 56.8599 23.1744C57.3877 20.7811 58.1796 18.3593 58.9714 16.0546C59.4412 14.7835 59.911 13.5727 60.4372 12.3317C60.7011 11.7112 60.9651 11.0623 61.2589 10.4418L61.6689 9.31951L61.3469 9.96844C61.5527 9.43659 61.8449 8.63881 62.0209 8.61038L61.9329 8.78766C61.9926 8.69902 62.0507 8.63881 62.1088 8.61038C62.4325 8.40299 63.2526 8.61038 63.6344 8.61038C63.8983 8.61038 64.2204 8.63881 64.4843 8.55017C64.6603 8.49163 64.6022 8.40299 64.8064 8.34445C65.1583 8.28424 65.5982 8.52173 65.98 8.40299C66.3319 8.31434 66.8299 7.98988 66.8017 7.5751V7.54667ZM61.229 9.2593C59.911 12.0657 58.9133 15.0796 57.8575 18.0048C57.3595 19.3344 56.8897 20.7226 56.5677 22.1107L56.4216 22.6727C56.6258 21.609 56.8599 20.5754 57.1537 19.5401C57.7994 17.2655 58.6195 15.021 59.5873 12.8635C61.229 9.17066 62.6965 5.21187 65.0421 1.87357C63.4584 4.14816 62.4027 6.74889 61.229 9.2593ZM63.1646 6.33411L63.8685 4.97605C63.7224 5.00615 63.4584 5.65508 63.1646 6.33411ZM60.145 12.7749C59.9392 13.3368 59.7051 13.8687 59.4711 14.4005C59.7051 13.8386 59.911 13.2482 60.1749 12.6578C60.145 12.7163 60.145 12.7465 60.145 12.7749ZM62.7845 7.1921L63.0766 6.5415C62.9887 6.77732 62.8725 7.01482 62.7845 7.1921ZM56.3917 25.8036C56.3618 25.8036 56.3336 25.7735 56.3037 25.7451L56.3917 25.8036Z" fill="white"/>
<path d="M79.9963 15.7887C79.9664 15.1381 79.4385 15.7001 79.2626 15.9359C78.8824 16.4979 78.5305 17.0883 78.1786 17.6502C77.3868 18.8611 76.5949 20.072 75.6852 21.2243C72.6657 24.9757 74.7772 18.2992 74.5415 18.3594C74.4253 18.3878 74.3373 18.831 74.3074 18.9196C74.5415 17.8559 74.9814 16.5865 75.5392 15.5529C75.8612 14.9023 76.243 14.3705 75.657 13.6613C74.5714 12.3317 73.3114 13.5443 72.6076 14.4591C72.3137 13.3369 71.7277 11.6828 70.2902 11.6828C69.6461 11.6828 69.2643 12.0072 68.8244 12.3919C68.5604 12.5692 68.3546 12.5976 68.1205 12.805C67.7387 13.0709 67.4748 13.484 67.2108 13.8386C66.2148 15.3154 65.511 17.1769 65.1889 18.8912C65.0412 19.7174 64.9831 20.634 65.2171 21.4602C65.3649 21.9335 65.8928 22.9972 66.5667 22.9085C66.5966 22.9085 66.5369 22.8784 66.4489 22.8199C66.8606 22.9387 67.3287 22.8784 67.6806 22.6426C67.7105 22.7012 67.3586 22.85 67.3586 22.85C67.6806 23.3518 70.086 20.4266 70.2619 20.1606C70.6421 19.6288 70.906 19.0685 71.258 18.5065C71.5219 18.0934 71.9319 17.5616 72.2257 17.1184C72.1959 17.3258 72.1959 17.59 72.1959 17.59C71.668 19.2742 71.17 21.1056 71.8738 22.85C72.1959 23.7364 72.9877 24.5626 73.9854 24.3854C74.8652 24.2382 75.5973 23.3819 76.1251 22.7012C76.7709 21.9335 77.3287 21.0772 77.8848 20.1907C78.3545 19.393 78.7945 18.5952 79.1746 17.7088C79.4103 17.1485 80.0544 16.4678 79.9963 15.7887ZM71.58 15.9961C71.4339 16.2018 71.2878 16.4092 71.17 16.6166L70.408 17.7088C69.91 18.448 69.3821 19.1571 68.8244 19.8362C68.6783 20.0436 67.9744 20.9584 67.6806 20.8698C67.2407 20.7226 67.7105 19.1856 67.7686 18.9498C67.8566 18.5366 69.4104 13.9858 69.822 13.8972C69.2942 13.8687 67.5926 19.2157 67.5046 19.6589C67.7387 18.2105 68.2666 16.7939 68.8542 15.4643C69.1763 14.7836 69.91 12.9823 70.8762 12.9823C71.404 12.9823 71.5219 14.0744 71.6099 14.429C71.58 14.3705 71.3161 13.5142 71.2878 13.5443C71.1401 13.6613 71.7277 15.287 71.7277 15.5228C71.7277 15.7586 71.7277 15.7586 71.58 15.9961ZM72.2556 17.4428C72.2556 17.4428 72.3436 17.0297 72.3718 16.9411L72.5196 16.7337L72.2556 17.4428ZM71.8157 15.6115V15.3154C71.9037 15.4342 71.9037 15.5228 71.8157 15.6115Z" fill="white"/>
<path d="M7.43729 35.7609C7.4226 35.6731 7.37677 35.6731 7.31538 35.659C7.20817 35.6441 7.056 35.7319 6.97906 35.7609C6.96436 35.7758 6.55194 35.9365 6.74994 35.9663C6.68941 35.9953 6.53638 35.9663 6.43003 35.9953C6.277 36.0243 6.23118 36.0682 6.10927 36.1419C6.04788 36.1858 5.45217 36.4633 5.33026 36.5072C5.36052 36.5072 5.48243 36.4931 5.55938 36.4782L5.16166 36.624C5.22305 36.5809 5.20749 36.5511 5.14697 36.566L5.34496 36.2438C5.29914 36.3465 5.19279 36.5072 5.20749 36.5221C5.26888 36.537 5.72711 35.8487 5.72711 35.8487L5.66573 35.8785C5.75737 35.7907 5.83432 35.7319 5.7885 35.5712C5.71155 35.3078 5.23861 35.1024 4.99393 35.1024C4.78038 35.1024 4.67317 35.2051 4.56682 35.3517C4.3524 35.6151 4.26075 35.9804 4.04719 36.2438C3.97111 36.3316 3.83364 36.4194 3.75669 36.5072C3.49731 36.7996 3.22237 37.0779 2.94742 37.3703C2.88604 37.4292 2.38284 37.9999 2.38284 37.9999C2.42866 37.9999 2.45892 37.9709 2.48918 37.956C2.27563 38.1465 1.64966 38.6725 1.38941 38.5847H1.37471C1.13003 38.5118 1.29777 37.9121 1.34359 37.7514C1.48106 37.0929 1.84765 36.4782 2.27563 35.9224C2.35171 35.8197 3.5587 34.4736 3.63478 34.5465C3.5587 34.4587 2.47449 35.6002 2.36728 35.717C2.82551 35.1463 3.5587 34.2392 4.39822 34.2102C4.41379 34.2102 4.18467 34.2392 4.15441 34.2691C4.21493 34.2392 4.70429 34.313 4.71899 34.298L4.68873 34.2541C4.78038 34.298 4.81064 34.4008 4.96367 34.3419C5.20749 34.2541 5.17723 33.8739 5.08558 33.6983C4.85646 33.2593 4.29188 33.2593 3.90972 33.2593C3.46705 33.2593 3.16098 33.4349 2.79525 33.6983C2.67248 33.7861 1.28307 35.0005 1.37471 35.0585C1.38941 35.0585 1.42054 35.0585 1.43524 35.0444L1.20612 35.3219C1.19142 35.3078 1.2675 35.2341 1.25194 35.22C1.17586 35.1902 0.748744 35.7319 0.717618 35.7609C0.534323 36.0102 0.442675 36.2438 0.33633 36.537C0.244682 36.7416 0.137472 36.9313 0.0760848 37.1508C0.0458238 37.2685 0 37.3853 0 37.517C0 37.5319 0.0302611 37.7514 0.0613867 37.7365V37.8533C0.0458238 37.8094 0.0302611 37.7514 0.0302611 37.7514C0 37.7655 0.10721 38.2194 0.10721 38.2194C0.137472 38.4679 0.198858 38.6584 0.396852 38.8481C0.625971 39.0676 0.976998 39.2142 1.31333 39.1852C2.03095 39.1115 2.82551 38.2194 3.2068 37.6926C3.10046 37.956 2.01625 40.7508 2.12259 40.7798C2.07677 40.9264 2.07677 41.0722 2.04651 41.2188C2.03095 41.2039 2.07677 41.0722 2.04651 41.0722C1.89348 41.0581 1.78713 42.2426 1.78713 42.3743C1.77157 42.8432 1.9246 43.4139 2.29119 43.7353C2.45892 43.8968 2.7183 44.0136 2.97768 43.9987C3.03907 43.9987 3.10046 43.9838 3.16098 43.9548C3.26819 43.9258 3.35984 43.867 3.42122 43.7792C3.45149 43.7502 3.57339 43.5456 3.51287 43.5597C3.57339 43.5017 3.61922 43.4429 3.66504 43.37C3.66504 43.3841 3.57339 43.5456 3.57339 43.5456C3.66504 43.5456 3.8639 43.0039 3.89416 42.931C4.07746 42.6377 4.23049 42.3453 4.3524 42.009C4.61264 41.2188 4.71899 40.3847 4.8409 39.5654C4.90228 39.1703 4.96367 38.7752 5.0095 38.366C5.03976 38.1606 5.05532 37.9411 5.07002 37.7216C5.08558 37.5758 5.03976 37.3703 5.08558 37.2246C5.11584 37.0779 5.42191 36.9023 5.63547 36.8435C5.66573 36.8294 5.58964 36.8145 5.58964 36.8145C5.71155 36.7557 5.8032 36.8294 6.00206 36.7416C6.10927 36.6828 6.26144 36.537 6.30726 36.5221C6.29256 36.5221 6.277 36.537 6.29256 36.5511C6.39891 36.4633 6.39891 36.5511 6.55194 36.5221C6.73524 36.4782 6.94879 36.2877 7.08627 36.156L7.20817 35.9953C7.28512 35.9224 7.45286 35.8926 7.43729 35.7609ZM4.55126 38.1026C4.45961 38.6584 4.38352 39.2142 4.27631 39.77L4.13884 40.4874C4.12328 40.6042 3.92529 41.1161 4.01693 41.2039C4.03163 41.2188 4.04719 41.16 4.06276 41.102C3.98581 41.4093 3.84834 41.7307 3.75669 42.0239C3.60452 42.4041 3.46705 42.8722 3.16098 43.1646C2.82551 43.4719 2.77969 43.0917 2.77969 42.7694C2.79525 41.8922 3.11516 40.9993 3.43592 40.1801C3.77225 39.2871 4.1691 38.4099 4.62734 37.5609L4.55126 38.0877V38.1026ZM2.99325 40.8386C3.19211 40.2819 3.46705 39.756 3.69617 39.2432C3.48175 39.7849 3.28375 40.3259 3.06933 40.8966C2.96299 41.1459 2.19954 43.2963 2.79525 43.399C2.1079 43.3551 2.87134 41.131 2.99325 40.8386ZM4.07746 38.424C4.07746 38.4389 4.09302 38.4389 4.09302 38.453C4.26075 38.1026 4.44405 37.7514 4.6429 37.4002V37.488C4.29188 38.1316 3.95555 38.7901 3.66504 39.4627L4.07746 38.4969C4.07746 38.5118 4.04719 38.5267 4.03163 38.5408C3.98581 38.5267 4.00137 38.4828 4.07746 38.424ZM3.42122 40.0484C3.42122 40.0633 3.40566 40.0633 3.40566 40.0633L3.42122 40.0334V40.0484ZM4.09302 38.4679C4.09302 38.4828 4.09302 38.4828 4.07746 38.4969L4.09302 38.4679ZM5.6199 35.9224C5.6199 35.9075 5.63547 35.9075 5.63547 35.8926C5.63547 35.9075 5.6199 35.9224 5.6199 35.9224Z" fill="white"/>
<path d="M14.1573 35.7758C14.1115 35.4975 13.4094 36.2737 13.3783 36.3026C12.9356 36.7557 12.5077 37.2536 11.9889 37.6487C11.7442 37.8243 11.6379 37.927 11.6526 37.5758C11.6681 37.2685 11.7901 36.9463 11.8817 36.6679C11.9275 36.5222 12.2327 35.9663 12.1411 35.8636C12.1264 35.8487 12.0953 35.8926 12.065 35.9224C12.2786 35.5124 12.7982 34.81 12.1108 34.6203C11.3318 34.4149 10.935 35.22 10.5986 35.7029C10.2779 36.1419 9.97266 36.5661 9.60607 36.9612C9.33113 37.2685 8.90401 37.8533 8.46048 37.9709C8.04806 38.1026 8.323 37.4582 8.38439 37.2387C8.43021 37.1219 8.9801 35.7609 9.01036 35.7758C8.9801 35.7758 8.94984 35.7907 8.91871 35.8346C9.08731 35.4834 9.27061 35.1322 9.4686 34.7951C9.42278 34.8829 9.37695 35.0295 9.37695 35.0295C9.4539 35.0444 9.81963 34.3271 9.78937 34.3271C9.7591 34.342 9.72884 34.371 9.69772 34.4149C9.81963 34.2103 9.97266 34.1075 9.69772 33.903C9.42278 33.6984 8.93428 33.6544 8.65933 33.888C8.323 34.1515 8.10945 34.6203 7.94171 34.9856C7.8345 35.1902 7.65121 35.3078 7.54486 35.5414C7.33044 35.9953 7.20853 36.4493 7.08662 36.9173C6.96385 37.3704 6.88777 37.8392 6.96385 38.3072C7.00968 38.5118 7.08662 38.7462 7.25436 38.892C7.30018 38.9218 7.74286 39.0825 7.7126 38.9798C7.68233 38.9798 7.65121 38.9798 7.63651 38.9657C7.80424 38.9657 7.97198 38.892 8.12501 38.8042C8.13971 38.8191 8.00224 38.8779 8.00224 38.892C8.15527 39.0825 9.31643 37.956 9.42278 37.8243C9.80493 37.3563 10.1862 36.9024 10.5839 36.4493C10.3851 36.9612 10.0487 37.6636 10.3695 38.2194C10.5528 38.5118 10.9047 38.6725 11.2402 38.6435C11.9578 38.5996 12.5993 37.8533 13.0429 37.4002C13.3325 37.0929 13.623 36.7707 13.8366 36.4194C13.9282 36.2737 14.1729 35.9514 14.1573 35.7758ZM11.8359 36.0682C11.8056 36.156 11.7901 36.2737 11.7442 36.3465C11.7442 36.3615 11.7287 36.3755 11.714 36.3904C11.7287 36.3755 11.7287 36.3615 11.7287 36.3465C11.6068 35.9804 12.065 35.5124 12.218 35.1463C12.0953 35.4685 11.9431 35.7609 11.8359 36.0682ZM8.20109 37.956C8.10945 37.5319 8.43021 36.9463 8.59795 36.5511C8.38439 37.1219 8.17083 37.8243 8.20109 37.956ZM10.5839 36.5222C10.5839 36.4633 10.5986 36.4194 10.6445 36.3904C10.6142 36.4343 10.5986 36.4782 10.5839 36.5222Z" fill="white"/>
<path d="M19.5024 35.7319C19.5024 35.7468 19.5024 35.7468 19.4877 35.7319V35.717C19.243 35.3219 18.9223 35.8636 18.7848 36.0541C18.5254 36.3904 18.2807 36.7118 18.0058 37.0191C17.7767 37.2825 17.5329 37.546 17.3496 37.8243C17.3496 37.8533 17.3184 37.927 17.3184 37.927C17.2579 38.0148 17.1663 38.0877 17.0893 38.1755C16.9518 38.3072 16.8144 38.453 16.6622 38.5847C16.4331 38.7901 15.15 39.9456 14.9823 39.1993C14.8906 38.834 15.0125 38.3801 15.0886 38.0289C15.1345 37.8392 15.1803 37.6636 15.2114 37.4731C15.2417 37.3264 15.1958 37.1807 15.2719 37.034C15.3178 36.9462 15.3333 36.9611 15.4405 36.9313L15.6999 36.8435C15.8676 36.7855 16.0362 36.7267 16.1884 36.6389C16.4175 36.5072 16.6311 36.3465 16.8299 36.1858C17.3037 35.8048 17.8078 35.3517 18.0058 34.781C18.113 34.4587 18.1286 34.1075 17.9141 33.83C17.7162 33.5807 17.3798 33.449 17.0746 33.391C16.2498 33.2444 15.6238 33.6983 15.15 34.298C14.5699 34.9856 14.1575 35.8346 13.9586 36.6977C13.8523 37.1218 13.7909 37.546 13.7148 37.985C13.6378 38.424 13.592 38.834 13.8367 39.2432C13.8211 39.0974 13.7909 38.9657 13.7909 38.834C13.7909 38.7603 13.8211 38.6874 13.8211 38.6286C13.8211 38.5996 13.7909 38.5118 13.7909 38.4679C13.7909 38.3362 13.8211 38.2343 13.8523 38.1026C13.867 37.9709 13.8523 37.8392 13.867 37.7075C13.8825 37.5609 13.9439 37.4441 14.0044 37.3124C14.0502 37.1947 14.0658 37.0929 14.1116 36.9752C14.1575 36.8733 14.1877 36.7557 14.2335 36.6389C14.2491 36.566 14.3252 36.4782 14.371 36.3904C14.3252 36.5221 14.2335 36.6389 14.2033 36.7557C14.1575 36.9313 14.1877 37.1218 14.173 37.2975C14.1419 37.488 14.0814 37.6777 14.0502 37.8831C14.02 38.0728 13.9283 38.2484 13.8981 38.4389C13.867 38.6145 13.8064 38.7462 13.8211 38.9218C13.8211 39.0237 13.8367 39.1264 13.8523 39.2142C13.867 39.331 13.9439 39.4047 14.02 39.4925C14.2794 39.7849 14.6304 40.0194 15.0281 40.1213C15.3031 40.195 15.5469 40.1801 15.8071 40.0484C16.1737 39.8578 16.4945 39.5654 16.7686 39.2871C17.0288 39.0096 17.2268 38.7023 17.4559 38.4099C17.6703 38.1465 17.9297 37.8972 18.1433 37.6338L18.9681 36.6099L19.4419 36.0102C19.518 35.9224 19.5638 35.8487 19.5024 35.7319ZM15.7155 35.8926C15.7302 35.8636 15.7302 35.8487 15.7302 35.8487C15.9593 35.3807 16.1279 34.8829 16.4487 34.4298L16.7227 34.0785C16.7841 34.0056 16.8913 33.8739 16.9977 33.8441C17.2268 33.8002 17.2882 34.1813 17.2726 34.327L17.2121 34.6344C17.1965 34.7222 17.2268 34.781 17.2121 34.8539C17.181 34.9417 17.1049 34.9856 17.0591 35.0585L16.7997 35.3807C16.4487 35.7758 16.0051 36.1121 15.5166 36.3614C15.5927 36.1999 15.6385 36.0392 15.7155 35.8926Z" fill="white"/>
<path d="M32.9267 35.7758V35.7609C32.8351 35.278 32.1486 36.0831 32.0569 36.156C31.6134 36.624 31.201 37.1368 30.8041 37.6487C30.4073 38.1755 30.0251 38.7023 29.6127 39.2292C29.4147 39.4926 29.2158 39.7411 28.9867 39.9755C28.9106 40.0633 28.7273 40.3118 28.5899 40.3118C28.0555 40.3118 28.468 38.2484 28.5285 37.927C28.6201 37.3563 28.666 36.595 29.0481 36.1419C29.1398 36.0243 30.1781 34.752 30.1781 34.752C30.1479 34.7371 30.0251 34.8829 29.949 34.9707L30.6053 34.1225L30.6511 34.0637L30.7738 33.903C30.7885 33.9179 30.7738 33.9469 30.7583 33.9758L30.8958 33.8301L31.2926 33.3322C31.5831 32.9371 31.8581 32.513 32.1174 32.103C32.5299 31.4304 33.0953 30.4645 32.7892 29.6453C32.5601 29.0456 31.7206 28.928 31.1551 29.1334C30.7427 29.2792 30.3917 29.5865 30.1021 29.9087C29.949 30.0984 29.796 30.3038 29.6585 30.5233C29.6127 30.5813 29.4147 31.0502 29.3689 31.1081H29.3836C29.2919 31.2688 29.2003 31.4304 29.1398 31.5911C29.17 31.4743 29.2461 31.2399 29.3075 31.1959C29.1856 31.2838 29.0784 31.7079 29.0481 31.7518C28.468 32.9661 27.9639 34.1954 27.5973 35.4834C27.1849 35.0295 26.5278 34.2542 25.8102 34.5325C25.2145 34.7661 24.7718 35.3658 24.4666 35.8926C24.1916 36.3615 24.1147 36.8435 23.9167 37.2975C23.5648 38.0728 23.3971 39.6682 24.5885 39.9018C24.9551 39.9755 25.2906 39.756 25.5811 39.5655C26.1007 39.1993 26.5892 38.7752 27.0474 38.3362C26.9705 39.1115 26.8027 40.282 27.4598 40.8966C28.2691 41.6868 29.0784 40.6191 29.5669 40.0335C30.1937 39.2731 30.6822 38.424 31.3082 37.6926C31.6134 37.3414 31.9194 36.9902 32.2402 36.6679C32.484 36.4344 32.9725 36.1419 32.9267 35.7758ZM27.3068 36.7417C27.2912 36.7856 27.2912 36.8146 27.2912 36.8146C27.2307 37.1658 27.2307 37.4731 26.9705 37.7216C26.7422 37.956 26.4975 38.1755 26.2529 38.395C26.0237 38.5996 25.4738 39.1993 25.1228 39.1703C24.6957 39.1264 25.0156 38.1904 25.23 37.6197C25.0009 38.2045 24.6343 39.1554 25.1384 39.1853C25.2759 39.1993 25.505 39.0825 25.703 38.9218C25.5197 39.0825 25.2145 39.3021 25.0312 39.2142C24.6801 39.0676 24.9853 38.2343 25.0467 37.9999C25.2447 37.3265 25.5352 36.6829 25.8716 36.0682C26.0393 35.7609 26.284 35.2639 26.6047 35.2341L26.5278 35.278C26.5434 35.2639 26.5589 35.2639 26.5736 35.2639C26.6808 35.2341 26.7872 35.3078 26.8641 35.3658C27.0621 35.4975 27.1849 35.7468 27.3224 35.9365C27.4745 36.1709 27.3682 36.4194 27.3068 36.6829V36.7417ZM29.7657 33.3612C29.7657 33.3471 29.7657 33.3173 29.7813 33.3032V33.2883C29.796 33.2444 29.8115 33.2295 29.8115 33.2295V33.2154C30.1626 32.2786 30.5447 31.3426 31.0946 30.4935C31.2321 30.274 31.6289 29.6014 31.98 29.7911C32.1174 29.8648 32.1486 30.0545 32.1486 30.1862C32.2091 31.0642 31.4759 32.103 31.0177 32.8054C30.4833 33.6246 29.8876 34.4298 29.2617 35.1761L29.598 34.839L29.9032 34.4737L29.1242 35.4395L29.017 35.5712L28.9565 35.6292C28.9712 35.5414 29.0481 35.4536 29.1242 35.3517C29.0939 35.3807 29.0628 35.4097 29.0481 35.4395C29.2461 34.81 29.4605 34.1813 29.6896 33.5517C29.6741 33.5666 29.6896 33.5368 29.7043 33.4788L29.7502 33.4051C29.7502 33.391 29.7502 33.3761 29.7657 33.3612ZM28.4827 34.5615C28.4524 34.6344 28.3607 34.9707 28.3149 35.0146C28.3149 35.0295 28.2994 35.0444 28.2847 35.0444C28.4066 34.8978 28.3305 34.7081 28.391 34.5325C28.4221 34.4447 28.5743 34.2832 28.6054 34.1664C28.6054 34.2832 28.5285 34.4886 28.4827 34.5615ZM26.0549 38.6145C26.4361 38.2923 26.8027 37.956 27.1538 37.6048C27.1235 37.7953 26.6506 38.1167 26.482 38.2633C26.284 38.453 26.0549 38.6435 25.8257 38.8191H25.8102L26.0549 38.6145ZM28.7576 33.2295C28.6962 33.4051 28.6201 33.5666 28.5285 33.7273C28.6054 33.5078 28.6513 33.2883 28.7576 33.0837C28.8492 32.923 28.9565 32.7176 29.0325 32.5279C28.9565 32.7615 28.8337 33.01 28.7576 33.2295ZM29.7502 33.4051L29.6896 33.5517C29.6896 33.5368 29.7043 33.5078 29.7043 33.4788L29.7502 33.4051ZM26.4517 35.3368C26.3903 35.3807 26.3445 35.4395 26.3298 35.4395C26.3601 35.4395 26.4059 35.3807 26.4517 35.3368ZM26.8788 35.3078C26.9099 35.3219 26.9402 35.3368 26.9705 35.3658L26.8788 35.3078ZM29.9032 35.0444C29.9032 35.0295 29.9188 35.0146 29.9335 35.0005C29.9188 35.0295 29.9032 35.0444 29.9032 35.0444ZM29.9335 35.0005L29.949 34.9707C29.949 34.9856 29.9335 35.0005 29.9335 35.0005Z" fill="white"/>
<path d="M39.4479 35.7029C39.4479 35.7029 39.4635 35.717 39.4479 35.688C39.3718 35.5853 39.2646 35.659 39.1583 35.688C38.7156 35.7758 38.2574 35.8785 37.7991 35.9514C37.9669 35.4246 38.1346 34.8688 38.196 34.327C38.2262 34.1224 38.2418 33.9029 38.196 33.6983C38.1657 33.5666 38.1199 33.4349 38.0429 33.3173C38.0429 33.3173 37.8597 33.0978 37.9055 33.2154L37.8908 33.2005L37.8294 33.0837L37.8908 33.1417C37.9055 33.0539 37.6461 32.8932 37.6461 32.8932C37.2639 32.5279 36.7452 32.2496 36.2256 32.5279C35.9048 32.7035 35.6454 32.9959 35.4319 33.2883C35.3549 33.391 35.2788 33.5078 35.2183 33.6246C35.1569 33.7422 35.0653 34.1224 34.9736 34.1813C34.8975 34.2392 34.6684 34.2542 34.5612 34.313C34.4082 34.3709 34.2707 34.4447 34.1488 34.5325C33.8583 34.7081 33.6292 34.9566 33.4156 35.2051C33.049 35.6731 32.8657 36.1999 32.6063 36.6679C32.1178 37.5609 32.6522 38.7313 33.5531 39.1554C33.8436 39.2871 34.179 39.3459 34.4851 39.3169C34.8059 39.273 35.1111 39.1115 35.3549 38.9359C35.584 38.7752 36.0881 38.4828 36.1797 38.2343C36.1797 38.2194 36.1495 38.2343 36.1036 38.2782L36.5463 37.7804C36.5619 37.7953 36.44 37.9411 36.44 37.9411C36.5463 37.985 37.0962 37.2097 37.1576 37.1508C37.2639 36.9752 37.3712 36.7856 37.4931 36.6099C37.6003 36.4782 37.57 36.4931 37.7222 36.4343C37.7075 36.4492 37.9055 36.3904 37.9366 36.3904C38.1043 36.3614 39.8915 36.2438 39.4479 35.7029ZM34.1643 38.6584H34.1488C32.8813 38.834 34.3476 36.2587 34.3779 36.1121L34.2863 36.2438C34.5154 35.8048 34.7289 35.4536 34.8361 35.3368C35.0039 36.0682 35.8287 36.3465 36.5005 36.4343C36.0578 37.2826 35.233 38.4679 34.1643 38.6584ZM37.1732 34.6054C37.0659 35.0146 36.9743 35.5563 36.7452 35.9224C36.6691 36.0682 36.7149 36.0243 36.5619 36.0541C36.4702 36.0831 36.2714 36.0541 36.1797 36.0392C36.012 36.0243 35.8131 35.9953 35.6912 35.8926C35.4777 35.717 35.5079 35.4395 35.5382 35.1902C35.5693 34.9417 35.6454 34.7081 35.7371 34.4737C35.7829 34.3859 36.0734 33.9178 36.0276 33.83C36.012 33.7861 35.8443 34.0496 35.8287 34.0636C35.9204 33.9029 36.012 33.8151 36.0881 33.7124C36.0734 33.7124 36.0881 33.6983 36.1036 33.6685V33.6834L36.1192 33.6544C36.1192 33.6544 36.1192 33.6395 36.1339 33.6395C36.363 33.3471 36.9285 32.6886 37.2337 33.1417C37.4628 33.5227 37.2492 34.2392 37.1732 34.6054ZM36.1192 33.6544L36.1339 33.6395C36.1339 33.6544 36.1192 33.6544 36.1192 33.6544ZM38.3637 30.4935C38.349 30.4645 38.3179 30.274 38.2876 30.2301C38.1804 30.0694 38.0127 30.0106 37.8597 29.9667C37.845 29.9667 37.6617 29.9228 37.5847 29.9377C37.4014 29.9526 37.4784 30.0255 37.4325 30.1133L36.8671 31.0501C36.791 31.181 36.4858 31.7667 36.638 31.8694C36.7296 31.9423 36.9587 31.7816 37.0201 31.7377C37.2795 31.5471 37.6158 31.3127 37.845 31.0642C37.8908 31.0203 38.4554 30.5374 38.3637 30.4935Z" fill="white"/>
<path d="M43.0068 35.7468C42.9765 35.5563 42.7621 35.6151 42.6558 35.688C42.5183 35.7758 41.7548 36.7416 41.8154 36.8145C41.8612 36.8145 41.8915 36.8145 41.9226 36.7855C41.709 37.034 41.3113 37.3124 41.0217 37.5319C40.8531 37.6636 40.4407 38.0289 40.1968 37.9121C39.6772 37.6636 40.7312 35.9075 40.6853 35.8926C40.6395 35.8785 40.2574 36.6977 40.1813 36.8874C40.3646 36.3755 40.6092 35.8636 40.8989 35.4097C40.8842 35.4536 40.8384 35.5273 40.8686 35.5273C40.8989 35.5414 41.128 35.2341 41.0822 35.2051C41.0675 35.2051 41.0364 35.2051 41.0217 35.22C41.0675 35.1761 41.1436 35.1612 41.1436 35.0734C41.1436 34.9267 40.7925 34.781 40.6698 34.7371C40.3801 34.6203 40.0896 34.5904 39.8605 34.7371C39.5553 34.9127 39.4939 35.2639 39.372 35.5712C39.3417 35.659 39.0512 36.6977 39.1126 36.7118C39.1429 36.6977 39.1429 36.6828 39.1584 36.6538L39.1126 36.9172C39.0971 36.9172 39.1273 36.8435 39.0971 36.8435C38.9752 36.8435 39.0054 37.3703 39.021 37.4441C39.0815 37.7075 39.2959 37.8972 39.4637 38.1167C39.5553 38.2484 39.6469 38.3801 39.7844 38.4679C39.9677 38.5996 39.8458 38.4679 39.9677 38.5267H39.9375C39.9219 38.6145 40.502 38.7603 40.6239 38.7462C41.1591 38.6286 41.5404 37.9999 41.8465 37.6048C42.1361 37.2535 42.3808 36.9023 42.6402 36.537C42.7932 36.3465 43.0682 36.0243 43.0068 35.7468ZM40.3343 33.9029C40.3646 33.9468 40.3187 34.0056 40.426 34.0636C40.5323 34.1075 40.5937 34.0495 40.6853 34.0197C40.8686 33.9468 41.0061 33.7563 41.1436 33.6395C41.1894 33.6105 41.0977 33.6246 41.0977 33.6246C41.2966 33.449 41.128 33.6544 41.3113 33.5517C41.4946 33.4349 41.5257 33.2444 41.6779 33.0837C41.4946 33.1566 41.3571 33.2593 41.2352 33.4051C41.0822 33.5956 40.9758 33.6834 40.8072 33.7861C40.9905 33.6544 41.0822 33.5227 41.2352 33.2883C41.281 33.2444 41.3269 33.2154 41.3883 33.1856C41.3424 33.1417 41.3424 33.0978 41.403 33.0539C41.4488 32.981 41.5404 32.952 41.5862 32.8791C41.6632 32.7764 41.6476 32.6447 41.7393 32.542C41.8154 32.484 41.9226 32.4401 41.9831 32.3813C42.1206 32.2645 42.2736 32.045 42.2122 31.8544C42.1517 31.6788 41.9987 31.4593 41.8309 31.3566C41.6321 31.2547 41.3571 31.2108 41.1436 31.2986C41.0977 31.3127 40.9145 31.3566 40.9758 31.4154C40.9905 31.4444 41.0061 31.4444 41.0364 31.4444C40.8989 31.5471 40.6698 31.7227 40.9905 31.8395C40.9603 31.8694 40.9905 32.0011 40.9905 32.0151C40.9758 32.1179 40.7614 32.6596 40.6239 32.923L40.8072 32.6596C40.7009 32.8791 40.5781 33.0837 40.4407 33.2593C40.5323 33.0688 40.349 33.2883 40.349 33.3322C40.1813 33.2593 40.2271 33.7124 40.2427 33.7563C40.2427 33.7712 40.3343 33.9029 40.3343 33.9029ZM40.0438 37.3853V37.4002L40.0135 37.488L40.0438 37.3703C40.0594 37.3563 40.0594 37.3563 40.0438 37.3853ZM40.5479 33.0398C40.5479 33.0398 40.5781 33.01 40.6092 32.952L40.5479 33.0398ZM40.3948 33.3173C40.3948 33.3322 40.3948 33.3322 40.3801 33.3471C40.3801 33.3471 40.3801 33.3322 40.3646 33.3322C40.3801 33.3322 40.3801 33.3322 40.3948 33.3173Z" fill="white"/>
<path d="M56.6757 35.8346C56.6757 35.8346 56.6904 35.8487 56.6757 35.8197C56.5685 35.4974 55.8967 36.3755 55.8206 36.4633C55.4229 36.9172 55.0261 37.3852 54.6137 37.8242C54.4459 37.9998 53.8502 38.7901 53.5597 38.7313C53.4222 38.7023 53.5294 37.9998 53.5294 37.9998C53.4992 38.0288 53.4836 38.0587 53.4681 38.0876C53.5908 37.5318 53.9419 36.8733 54.1857 36.3175C54.4459 35.688 54.8272 34.8687 54.6292 34.1663C54.4001 33.3612 53.5294 33.7712 53.117 34.1514C52.964 34.298 51.6965 35.8785 51.7121 35.9804L52.0173 35.5852C51.7734 35.9514 51.5443 36.3026 51.361 36.6679C51.5132 36.156 51.6662 35.6291 51.8495 35.1172C51.987 34.766 52.2161 34.4007 52.3225 34.0346C52.4452 33.5666 52.0173 32.923 51.4674 32.9959C51.0705 33.0398 50.7342 33.4788 50.5362 33.7861C50.2915 34.1663 50.0019 34.5175 49.7572 34.8828C49.4667 35.3367 49.2229 35.8346 48.9782 36.3026C48.7646 36.6828 48.6574 37.1218 48.4283 37.473C48.4586 37.3123 48.398 37.1947 48.398 37.0489C48.398 36.9172 48.4586 36.7557 48.4897 36.624C48.5355 36.4194 48.6574 36.2438 48.7032 36.0392C48.7335 35.9365 48.7032 35.8926 48.7335 35.7907C48.7491 35.7169 48.8252 35.6291 48.871 35.5712C48.9782 35.4245 49.1157 35.2928 49.2073 35.1462C49.2229 35.1172 49.2531 35.0882 49.2531 35.0584C49.3145 34.8538 49.1615 34.7809 49.0854 34.6782C49.0084 34.5904 48.9324 34.4007 48.8105 34.298C48.7188 34.2251 48.5658 34.1373 48.4586 34.1812C48.322 34.2392 48.3825 34.3129 48.3367 34.3858C48.2761 34.5324 48.1534 34.6492 48.0773 34.7809C47.9554 35.0294 47.8482 35.2779 47.7721 35.5273C47.5888 36.0392 47.3744 36.566 47.4055 37.1069C47.4202 37.5169 47.2983 37.8532 47.619 38.2193C47.7721 38.395 48.3669 38.7752 48.5199 38.5118C48.5355 38.4828 48.5502 38.366 48.5502 38.3221C48.596 38.1754 48.7032 38.0437 48.7646 37.8971C48.9168 37.6047 49.0543 37.2974 49.2229 36.9901C49.65 36.2148 49.9707 35.4684 50.4748 34.7221C50.6278 34.5026 50.8111 34.2831 50.9944 34.0785C51.0403 34.0346 51.2694 33.7273 51.2996 33.7422C51.5443 33.7563 51.055 34.6492 51.0091 34.8099C50.8111 35.3077 50.4592 35.8197 50.3987 36.3465C50.3832 36.5221 50.429 36.5809 50.3832 36.7416C50.3373 36.9172 50.2613 37.1069 50.276 37.2974C50.3071 37.473 50.3832 37.6337 50.5206 37.7513C51.0091 38.2044 51.208 37.6776 51.4215 37.3264C51.6818 36.9172 51.9256 36.3316 52.2464 36.0243C52.7504 35.5562 53.0098 34.9267 53.5139 34.4736C53.4378 34.6343 53.0098 35.6291 53.0254 35.6441C53.0556 35.6151 53.0712 35.5852 53.0868 35.5562C53.0254 35.7169 52.964 35.8636 52.9182 36.0102C52.8879 35.9953 52.9493 35.8785 52.9337 35.8785C52.8421 35.8636 52.5671 36.6828 52.5516 36.7416C52.4452 37.034 52.3994 37.3123 52.3994 37.6196C52.3994 37.8971 52.3994 38.1754 52.4452 38.4679C52.4755 38.6435 52.5213 38.834 52.613 38.9947C52.6432 39.0676 52.8576 39.273 52.8576 39.2432C52.8723 39.273 52.8723 39.302 52.9035 39.3169L52.8879 39.302C52.8576 39.4188 53.4992 39.6242 53.6055 39.6093C54.1399 39.5944 54.675 38.9069 54.9647 38.5407C55.3927 38.0437 55.7748 37.502 56.1561 36.9752C56.355 36.6977 56.7674 36.2148 56.6757 35.8346ZM51.1924 34.8687H51.208C51.1924 34.8828 51.1777 34.9126 51.1777 34.9126C50.9944 35.2779 50.9028 35.7029 50.7498 36.098C50.6278 36.3904 50.4748 36.7416 50.4445 37.063C50.4445 36.7267 50.5509 36.3316 50.6581 36.0392C50.78 35.688 50.9633 35.3516 51.1163 35.0145C51.1777 34.8977 51.5443 33.9907 51.4829 33.7563C51.5746 33.9617 51.2996 34.6492 51.208 34.8687V34.8538L51.1924 34.8687Z" fill="white"/>
<path d="M62.0206 35.7319C62.0206 35.7468 62.0206 35.7468 62.0059 35.7319V35.717C61.7612 35.3219 61.4405 35.8636 61.303 36.0541C61.0436 36.3904 60.7989 36.7118 60.524 37.0191C60.2949 37.2825 60.051 37.546 59.8678 37.8243C59.8678 37.8533 59.8366 37.927 59.8366 37.927C59.7761 38.0148 59.6845 38.0877 59.6075 38.1755C59.47 38.3072 59.3326 38.453 59.1804 38.5847C58.9513 38.7901 57.6682 39.9456 57.5005 39.1993C57.4088 38.834 57.5307 38.3801 57.6068 38.0289C57.6526 37.8392 57.6985 37.6636 57.7296 37.4731C57.7599 37.3264 57.714 37.1807 57.7901 37.034C57.8359 36.9462 57.8515 36.9611 57.9587 36.9313L58.2181 36.8435C58.3858 36.7855 58.5544 36.7267 58.7066 36.6389C58.9357 36.5072 59.1493 36.3465 59.3481 36.1858C59.8219 35.8048 60.326 35.3517 60.524 34.781C60.6312 34.4587 60.6468 34.1075 60.4323 33.83C60.2343 33.5807 59.898 33.449 59.5928 33.391C58.768 33.2444 58.142 33.6983 57.6682 34.298C57.0881 34.9856 56.6756 35.8346 56.4768 36.6977C56.3704 37.1218 56.3091 37.546 56.233 37.985C56.156 38.424 56.1102 38.834 56.3549 39.2432C56.3393 39.0974 56.3091 38.9657 56.3091 38.834C56.3091 38.7603 56.3393 38.6874 56.3393 38.6286C56.3393 38.5996 56.3091 38.5118 56.3091 38.4679C56.3091 38.3362 56.3393 38.2343 56.3704 38.1026C56.3851 37.9709 56.3704 37.8392 56.3851 37.7075C56.4007 37.5609 56.4621 37.4441 56.5226 37.3124C56.5684 37.1947 56.584 37.0929 56.6298 36.9752C56.6756 36.8733 56.7059 36.7557 56.7517 36.6389C56.7673 36.566 56.8434 36.4782 56.8892 36.3904C56.8434 36.5221 56.7517 36.6389 56.7215 36.7557C56.6756 36.9313 56.7059 37.1218 56.6912 37.2975C56.6601 37.488 56.5996 37.6777 56.5684 37.8831C56.5382 38.0728 56.4465 38.2484 56.4163 38.4389C56.3851 38.6145 56.3246 38.7462 56.3393 38.9218C56.3393 39.0237 56.3549 39.1264 56.3704 39.2142C56.3851 39.331 56.4621 39.4047 56.5382 39.4925C56.7976 39.7849 57.1486 40.0194 57.5463 40.1213C57.8212 40.195 58.0651 40.1801 58.3253 40.0484C58.6919 39.8578 59.0127 39.5654 59.2867 39.2871C59.547 39.0096 59.745 38.7023 59.9741 38.4099C60.1885 38.1465 60.4479 37.8972 60.6615 37.6338L61.4863 36.6099L61.9601 36.0102C62.0362 35.9224 62.082 35.8487 62.0206 35.7319ZM58.2337 35.8926C58.2484 35.8636 58.2484 35.8487 58.2484 35.8487C58.4775 35.3807 58.6461 34.8829 58.9668 34.4298L59.2409 34.0785C59.3023 34.0056 59.4095 33.8739 59.5159 33.8441C59.745 33.8002 59.8064 34.1813 59.7908 34.327L59.7303 34.6344C59.7147 34.7222 59.745 34.781 59.7303 34.8539C59.6992 34.9417 59.6231 34.9856 59.5772 35.0585L59.3179 35.3807C58.9668 35.7758 58.5233 36.1121 58.0348 36.3614C58.1109 36.1999 58.1567 36.0392 58.2337 35.8926Z" fill="white"/>
<path d="M67.8549 35.8636C67.7788 35.5124 67.5644 35.7468 67.4727 35.8785C67.2592 36.127 66.9228 36.3614 66.6635 36.595C66.3124 36.8874 65.9614 37.1947 65.5948 37.473C65.4115 37.6196 65.1824 37.8242 64.9533 37.8971C64.9221 37.9121 64.8158 37.927 64.8158 37.941L64.8002 37.927C64.8002 37.927 64.7847 37.6925 64.8002 37.6776C64.8158 37.4879 64.8763 37.2974 64.9377 37.1218C64.9533 37.0928 65.121 36.595 65.0907 36.595L65.0138 36.6828C65.1054 36.5072 65.2282 36.3316 65.3346 36.1419C65.0907 36.3614 64.9221 36.6099 64.8002 36.9172C64.7389 37.063 64.5711 37.3264 64.5409 37.5459C64.5711 37.2245 64.8002 36.7996 64.9075 36.6099C65.0596 36.3026 65.2282 35.9514 65.4262 35.659C65.7928 35.1322 66.5874 34.6492 66.3427 33.9178C66.1291 33.2295 65.5637 33.2154 65.121 33.6105C64.9075 33.8002 63.0901 36.0243 63.1359 36.0541C63.1359 36.0541 63.2881 35.8785 63.4869 35.6292L62.586 36.8874C62.5704 36.8874 62.7382 36.6389 62.7235 36.624C62.7079 36.6099 62.6007 36.7118 62.586 36.7706C62.6163 36.4633 62.7235 36.156 62.7537 35.8487C62.7693 35.7319 62.7537 35.6441 62.784 35.5273C62.8454 35.3368 62.9068 35.1322 62.9984 34.9706C63.0589 34.8538 63.1817 34.7519 63.212 34.6343C63.2734 34.4446 63.2578 34.3709 63.3953 34.2102C63.5172 34.0636 63.7005 33.9178 63.8077 33.7861C64.0671 33.42 63.6244 33.1715 63.3797 33.1276C63.1817 33.0978 62.9829 33.0837 62.7996 33.1856C62.6007 33.3032 62.6465 33.4051 62.6007 33.5666C62.5549 33.7712 62.4027 34.0056 62.3266 34.1953C62.2038 34.5026 62.0975 34.8099 61.9903 35.1172C61.8684 35.4246 61.7456 35.717 61.654 36.0243C61.5779 36.2736 61.5934 36.5072 61.5623 36.7416C61.5321 37.005 61.4862 37.1806 61.6237 37.4142C61.7767 37.6635 62.1891 38.0438 62.4641 37.7215L62.5246 37.8392C62.784 37.2974 63.1817 36.8145 63.5025 36.2877C63.6399 36.0541 63.8838 35.8926 64.0826 35.6441C64.3576 35.2928 64.6014 34.9416 64.9075 34.6053C64.8616 34.6782 64.6628 35.0145 64.6783 35.0294C64.7086 35.0145 64.7242 34.9855 64.7544 34.9565L64.5409 35.3657C64.5253 35.3517 64.6014 35.2489 64.5711 35.2489C64.4639 35.22 64.144 36.0392 64.1129 36.1121C64.0065 36.4343 63.991 36.7267 63.9607 37.063C63.9452 37.2245 63.9149 37.3852 63.9149 37.5459C63.9149 37.7075 63.9296 37.8681 64.0065 38.0288C64.0524 38.1167 64.1129 38.2343 64.1898 38.3072C64.2045 38.3072 64.3731 38.453 64.2962 38.3362L64.3878 38.424L64.342 38.395C64.3273 38.4679 64.8919 38.7603 64.9835 38.7901C65.4115 38.9218 65.8698 38.453 66.1447 38.1755C66.5104 37.7953 66.8165 37.3562 67.152 36.9462C67.3352 36.7118 67.9163 36.2148 67.8549 35.8636Z" fill="white"/>
<path d="M74.3758 35.7029C74.3758 35.7029 74.3914 35.717 74.3758 35.688C74.2998 35.5853 74.1925 35.659 74.0862 35.688C73.6435 35.7758 73.1853 35.8785 72.727 35.9514C72.8948 35.4246 73.0625 34.8688 73.1239 34.327C73.1542 34.1224 73.1697 33.9029 73.1239 33.6983C73.0936 33.5666 73.0478 33.4349 72.9709 33.3173C72.9709 33.3173 72.7876 33.0978 72.8334 33.2154L72.8187 33.2005L72.7573 33.0837L72.8187 33.1417C72.8334 33.0539 72.574 32.8932 72.574 32.8932C72.1919 32.5279 71.6731 32.2496 71.1535 32.5279C70.8327 32.7035 70.5733 32.9959 70.3598 33.2883C70.2828 33.391 70.2067 33.5078 70.1462 33.6246C70.0848 33.7422 69.9932 34.1224 69.9015 34.1812C69.8254 34.2392 69.5963 34.2541 69.4891 34.3129C69.3361 34.3709 69.1986 34.4446 69.0767 34.5324C68.7862 34.7081 68.5571 34.9566 68.3435 35.2051C67.9769 35.6731 67.7936 36.1999 67.5343 36.6679C67.0458 37.5608 67.5801 38.7313 68.481 39.1554C68.7715 39.2871 69.107 39.3459 69.413 39.3169C69.7338 39.273 70.039 39.1115 70.2828 38.9359C70.5119 38.7752 71.016 38.4828 71.1077 38.2343C71.1077 38.2194 71.0774 38.2343 71.0316 38.2782L71.4742 37.7804C71.4898 37.7953 71.3679 37.9411 71.3679 37.9411C71.4742 37.985 72.0241 37.2096 72.0855 37.1508C72.1919 36.9752 72.2991 36.7855 72.421 36.6099C72.5282 36.4782 72.4979 36.4931 72.6501 36.4343C72.6354 36.4492 72.8334 36.3904 72.8645 36.3904C73.0323 36.3614 74.8194 36.2438 74.3758 35.7029ZM69.0923 38.6584H69.0767C67.8092 38.834 69.2756 36.2587 69.3058 36.1121L69.2142 36.2438C69.4433 35.8048 69.6569 35.4536 69.7641 35.3368C69.9318 36.0682 70.7566 36.3465 71.4284 36.4343C70.9857 37.2825 70.1609 38.4679 69.0923 38.6584ZM72.1011 34.6053C71.9939 35.0145 71.9022 35.5563 71.6731 35.9224C71.597 36.0682 71.6428 36.0243 71.4898 36.0541C71.3982 36.0831 71.1993 36.0541 71.1077 36.0392C70.9399 36.0243 70.7411 35.9953 70.6192 35.8926C70.4056 35.717 70.4359 35.4395 70.4661 35.1901C70.4972 34.9416 70.5733 34.7081 70.665 34.4736C70.7108 34.3858 71.0013 33.9178 70.9555 33.83C70.9399 33.7861 70.7722 34.0495 70.7566 34.0636C70.8483 33.9029 70.9399 33.8151 71.016 33.7124C71.0013 33.7124 71.016 33.6983 71.0316 33.6685V33.6834L71.0471 33.6544C71.0471 33.6544 71.0471 33.6395 71.0618 33.6395C71.2909 33.3471 71.8564 32.6886 72.1616 33.1417C72.3907 33.5227 72.1772 34.2392 72.1011 34.6053ZM71.0471 33.6544L71.0618 33.6395C71.0618 33.6544 71.0471 33.6544 71.0471 33.6544Z" fill="white"/>
<path d="M79.9966 35.9075C79.9508 35.7029 79.828 35.6731 79.6759 35.7319C79.3854 35.8636 79.0948 36.156 78.8199 36.3316C78.1939 36.7118 77.568 37.0191 76.8962 37.3414C76.8962 37.3265 76.8806 37.2975 76.865 37.2536C76.8806 37.3265 76.865 37.3563 76.8503 37.3704C76.6973 36.7416 76.5451 36.1121 76.4224 35.4685C76.4838 35.7468 76.6212 36.2148 76.7284 36.6099C76.591 35.9953 76.4224 35.2341 76.4379 35.2341C76.4077 35.249 76.4077 35.278 76.4077 35.3078C76.3765 35.1322 76.3307 34.9127 76.3618 34.7222C76.3765 34.5027 76.4993 34.313 76.5754 34.1075C76.5598 34.2103 76.5296 34.342 76.5296 34.342C76.6212 34.3569 76.6826 33.8151 76.6826 33.7563C76.6671 33.6685 76.4682 33.391 76.4682 33.4639C76.0558 33.0978 75.2465 33.9029 75.1246 34.2542C75.033 34.4886 75.033 34.7371 75.0477 34.9856C75.0632 35.2341 75.1393 35.4536 75.2163 35.688C75.2621 35.8636 75.2007 35.9804 75.2163 36.1709C75.2465 36.4633 75.3537 36.7557 75.4142 37.0341C75.4756 37.2536 75.6745 37.6926 75.6287 37.8972C75.5975 38.1026 75.1393 38.2782 74.9413 38.395C74.6819 38.5557 74.4217 38.7462 74.1623 38.9359C73.7041 39.273 73.2156 39.6972 73.0323 40.2389C73.0011 40.3118 72.8948 40.6332 73.0011 40.692C73.0167 40.7069 73.0625 40.4576 73.0781 40.4286C72.8792 41.3944 73.8718 41.8624 74.8038 41.8773C75.8578 41.9063 76.591 41.3215 76.9567 40.4137C77.1097 40.0194 77.1555 39.6094 77.14 39.1993C77.14 38.9218 77.1097 38.6584 77.0639 38.395C77.0336 38.1606 77.0025 38.1755 77.1711 38.0438C77.293 37.956 77.4763 37.8972 77.5982 37.8392C78.0876 37.5899 78.5303 37.2975 78.9729 36.9902C79.2937 36.7706 80.0571 36.3904 79.9966 35.9224V35.9075ZM73.826 40.9405C73.4291 40.8237 73.826 40.224 73.9634 40.0335C74.1926 39.7411 74.5289 39.5215 74.8341 39.3169L75.2923 39.0237C75.3382 38.9947 75.6287 38.7752 75.537 38.8042L75.7203 38.7023L75.6131 38.7901C75.6434 38.7752 75.6892 38.7603 75.7203 38.7313C75.735 39.0825 75.735 39.4337 75.6287 39.785C75.6131 39.8438 75.3226 40.4286 75.2007 40.5454L75.2768 40.4874C75.1393 40.6481 74.9871 40.7798 74.8038 40.8825C74.8038 40.8676 74.9413 40.7798 74.9257 40.7649L74.4986 40.9264C74.2842 40.9703 74.0404 41.0142 73.826 40.9405ZM75.7506 41.3654C75.3537 41.5261 74.9716 41.599 74.5592 41.6139C75.3079 41.57 76.0869 41.2188 76.5296 40.6191C76.3618 40.9405 76.1474 41.1898 75.7506 41.3654ZM76.865 37.2097C76.8503 37.1069 76.8192 36.9612 76.7743 36.7996C76.8045 36.9612 76.8348 37.1219 76.865 37.2097ZM77.0639 38.7313C77.0483 38.7164 77.0483 38.6874 77.0483 38.6584C77.0483 38.6874 77.0639 38.7164 77.0639 38.7313Z" fill="white"/>
</svg>
