<svg width="369" height="158" viewBox="0 0 369 158" fill="none" xmlns="http://www.w3.org/2000/svg">
<path d="M43.585 52.9004C43.585 54.7005 43.3913 56.2842 43.0039 57.6514C42.6393 58.9958 42.1494 60.1579 41.5342 61.1377C40.9417 62.0947 40.2695 62.8923 39.5176 63.5303C38.7656 64.1455 37.9909 64.6354 37.1934 65C36.4186 65.3646 35.6667 65.6152 34.9375 65.752C34.2311 65.9115 33.6159 65.9912 33.0918 65.9912C32.8184 65.9912 32.4424 65.9684 31.9639 65.9229C31.4854 65.9001 30.9385 65.8317 30.3232 65.7178C29.708 65.6038 29.0244 65.4329 28.2725 65.2051C27.5433 65 26.7686 64.7038 25.9482 64.3164L26.3242 55.7031C27.6686 56.8424 28.8649 57.6058 29.9131 57.9932C30.984 58.3805 31.8841 58.5742 32.6133 58.5742C34.026 58.5742 35.0856 58.0615 35.792 57.0361C36.5212 56.0107 36.8857 54.6777 36.8857 53.0371C36.8857 51.9434 36.6123 50.7243 36.0654 49.3799C35.5413 48.0127 34.5957 46.543 33.2285 44.9707C32.2943 43.877 31.3258 42.7376 30.3232 41.5527C29.3206 40.3678 28.4092 39.1032 27.5889 37.7588C26.7686 36.4144 26.0964 34.9674 25.5723 33.418C25.0482 31.8685 24.7861 30.1937 24.7861 28.3936C24.7861 26.1149 25.0938 24.1439 25.709 22.4805C26.347 20.8171 27.1901 19.4385 28.2383 18.3447C29.2865 17.251 30.4827 16.4421 31.8271 15.918C33.1943 15.3711 34.6185 15.0977 36.0996 15.0977C37.3984 15.0977 38.7201 15.2799 40.0645 15.6445C41.4316 15.9863 42.7988 16.5218 44.166 17.251L43.5166 25.8643C42.9242 25.1123 42.2975 24.5199 41.6367 24.0869C40.9987 23.6312 40.3721 23.2894 39.7568 23.0615C39.1644 22.8337 38.6061 22.6855 38.082 22.6172C37.5807 22.5488 37.1592 22.5146 36.8174 22.5146C36.1566 22.5146 35.5413 22.6855 34.9717 23.0273C34.4248 23.3464 33.9463 23.7907 33.5361 24.3604C33.1488 24.9072 32.8411 25.568 32.6133 26.3428C32.3854 27.0947 32.2715 27.8923 32.2715 28.7354C32.2715 30.0342 32.5449 31.2077 33.0918 32.2559C33.6615 33.304 34.3678 34.3408 35.2109 35.3662C36.054 36.3916 36.9541 37.4512 37.9111 38.5449C38.891 39.6159 39.8024 40.835 40.6455 42.2021C41.4886 43.5465 42.1836 45.096 42.7305 46.8506C43.3001 48.5824 43.585 50.599 43.585 52.9004ZM66.5537 64.0771C64.4346 64.8063 62.4977 65.2848 60.7432 65.5127C59.0114 65.7406 57.5872 65.8545 56.4707 65.8545C55.0807 65.8545 53.8617 65.5811 52.8135 65.0342C51.7653 64.4873 50.8538 63.7581 50.0791 62.8467C49.3271 61.9352 48.7005 60.887 48.1992 59.7021C47.6979 58.4945 47.2992 57.2298 47.0029 55.9082C46.7067 54.5866 46.4902 53.2536 46.3535 51.9092C46.2396 50.542 46.1826 49.2546 46.1826 48.0469C46.1826 45.0391 46.4219 42.2705 46.9004 39.7412C47.3789 37.1891 48.0739 34.9902 48.9854 33.1445C49.8968 31.2988 51.0247 29.8633 52.3691 28.8379C53.7135 27.7897 55.2402 27.2656 56.9492 27.2656C58.362 27.2656 59.6494 27.6188 60.8115 28.3252C61.9736 29.0316 62.9648 30.1139 63.7852 31.5723C64.6055 33.0306 65.2321 34.8877 65.665 37.1436C66.1208 39.3766 66.3486 42.0312 66.3486 45.1074C66.3486 45.9733 66.3258 46.8506 66.2803 47.7393C66.2575 48.6279 66.2005 49.5508 66.1094 50.5078L54.0098 52.1143C54.1009 52.9574 54.2376 53.7549 54.4199 54.5068C54.625 55.2588 54.887 55.931 55.2061 56.5234C55.5479 57.0931 55.9466 57.5488 56.4023 57.8906C56.8581 58.2324 57.4163 58.4033 58.0771 58.4033C59.3076 58.4033 60.5381 58.335 61.7686 58.1982C62.999 58.0387 64.2865 57.8564 65.6309 57.6514L66.5537 64.0771ZM53.8047 46.3037L59.4785 45.2441V43.9453C59.4785 42.0085 59.3304 40.516 59.0342 39.4678C58.738 38.3968 58.4189 37.6107 58.0771 37.1094C57.667 36.5169 57.1999 36.1751 56.6758 36.084C56.015 36.1523 55.4909 36.46 55.1035 37.0068C54.7161 37.5537 54.4199 38.2601 54.2148 39.126C54.0326 39.9691 53.9186 40.9261 53.873 41.9971C53.8275 43.068 53.8047 44.1504 53.8047 45.2441V46.3037ZM101.622 43.2275C101.622 46.8278 101.599 50.4281 101.554 54.0283C101.531 57.6286 101.463 61.377 101.349 65.2734L95.4014 64.9316V60.3174C94.7178 61.5479 93.943 62.4935 93.0771 63.1543C92.2113 63.7923 91.391 64.2708 90.6162 64.5898C89.7048 64.9544 88.8047 65.1595 87.916 65.2051C86.8223 65.2051 85.7969 64.9658 84.8398 64.4873C83.8828 63.986 83.0511 63.3252 82.3447 62.5049C81.6383 61.6846 81.0801 60.7503 80.6699 59.7021C80.2826 58.6312 80.0889 57.526 80.0889 56.3867C80.0889 55.0879 80.3623 53.8118 80.9092 52.5586C81.4788 51.2826 82.4359 50.1318 83.7803 49.1064C85.5804 47.7165 87.1413 46.5544 88.4629 45.6201C89.7845 44.6859 90.8783 43.8428 91.7441 43.0908C92.6328 42.3161 93.2822 41.5869 93.6924 40.9033C94.1253 40.1969 94.3418 39.388 94.3418 38.4766C94.3418 36.9727 94.0911 35.8561 93.5898 35.127C93.0885 34.375 92.4277 33.999 91.6074 33.999C91.1061 33.999 90.6732 34.1357 90.3086 34.4092C89.9668 34.6598 89.682 35.0016 89.4541 35.4346C89.249 35.8447 89.0895 36.3118 88.9756 36.8359C88.8844 37.3372 88.8389 37.8385 88.8389 38.3398C88.8389 38.6816 88.8503 39.0576 88.873 39.4678C88.9186 39.8779 88.9984 40.3109 89.1123 40.7666L81.251 40.9033C81.2054 40.516 81.1712 40.1514 81.1484 39.8096C81.1257 39.445 81.1143 39.0918 81.1143 38.75C81.1143 37.3372 81.3535 35.9473 81.832 34.5801C82.3105 33.1901 83.0055 31.9596 83.917 30.8887C84.8512 29.7949 85.9792 28.9176 87.3008 28.2568C88.6224 27.596 90.1377 27.2656 91.8467 27.2656C94.057 27.2656 95.8001 27.7327 97.0762 28.667C98.375 29.5785 99.3548 30.7861 100.016 32.29C100.699 33.7939 101.132 35.5029 101.314 37.417C101.52 39.3083 101.622 41.2451 101.622 43.2275ZM93.9316 52.9004C94.0456 52.3307 94.1481 51.6813 94.2393 50.9521C94.3304 50.3369 94.4102 49.5964 94.4785 48.7305C94.5469 47.8418 94.6038 46.8506 94.6494 45.7568C94.2848 46.2581 93.9316 46.7025 93.5898 47.0898C93.248 47.4772 92.929 47.819 92.6328 48.1152C92.291 48.457 91.972 48.7646 91.6758 49.0381C91.1517 49.471 90.5934 49.9609 90.001 50.5078C89.4085 51.0319 88.8617 51.5902 88.3604 52.1826C87.8818 52.7751 87.4717 53.3903 87.1299 54.0283C86.8109 54.6436 86.6514 55.2474 86.6514 55.8398C86.6514 56.4779 86.8678 57.0703 87.3008 57.6172C87.7337 58.1413 88.2692 58.4033 88.9072 58.4033C89.3857 58.4033 89.8757 58.2666 90.377 57.9932C90.901 57.7197 91.391 57.3324 91.8467 56.8311C92.3252 56.3298 92.7467 55.7487 93.1113 55.0879C93.4759 54.4271 93.7493 53.6979 93.9316 52.9004ZM121.207 36.9385C120.888 36.5283 120.501 36.2093 120.045 35.9814C119.589 35.7536 119.133 35.5827 118.678 35.4688C118.222 35.3548 117.8 35.2865 117.413 35.2637C117.026 35.2181 116.752 35.1953 116.593 35.1953C115.909 35.1953 115.294 35.4915 114.747 36.084C114.223 36.6764 113.767 37.5195 113.38 38.6133C113.015 39.707 112.73 41.04 112.525 42.6123C112.343 44.1618 112.252 45.9049 112.252 47.8418C112.252 49.7103 112.377 51.4193 112.628 52.9688C112.901 54.4954 113.368 55.8171 114.029 56.9336C114.69 58.0273 115.579 58.9046 116.695 59.5654C117.812 60.2262 119.225 60.6136 120.934 60.7275L120.729 66.6064C120.341 66.652 119.954 66.6862 119.566 66.709C119.202 66.7318 118.837 66.7432 118.473 66.7432C116.513 66.7432 114.815 66.4925 113.38 65.9912C111.967 65.5127 110.759 64.8291 109.757 63.9404C108.754 63.0518 107.934 62.0036 107.296 60.7959C106.681 59.5654 106.191 58.2324 105.826 56.7969C105.462 55.3385 105.211 53.8005 105.074 52.1826C104.96 50.542 104.903 48.8672 104.903 47.1582C104.903 45.9733 104.926 44.6631 104.972 43.2275C105.04 41.7692 105.177 40.3109 105.382 38.8525C105.61 37.3714 105.94 35.9359 106.373 34.5459C106.829 33.1559 107.444 31.9255 108.219 30.8545C108.993 29.7607 109.962 28.8949 111.124 28.2568C112.309 27.596 113.733 27.2656 115.396 27.2656C116.126 27.2656 116.832 27.3226 117.516 27.4365C118.199 27.5505 118.826 27.6986 119.396 27.8809C119.965 28.0404 120.455 28.2227 120.865 28.4277C121.275 28.61 121.572 28.7809 121.754 28.9404L121.207 36.9385ZM138.263 64.7949C138.422 63.6556 138.559 62.4821 138.673 61.2744C138.787 60.0667 138.889 58.859 138.98 57.6514C139.072 56.4437 139.151 55.2588 139.22 54.0967C139.288 52.9346 139.345 51.8294 139.391 50.7812C139.482 48.3431 139.55 45.9391 139.596 43.5693C139.596 41.6097 139.516 40.0602 139.356 38.9209C139.197 37.7588 138.98 36.8815 138.707 36.2891C138.456 35.6738 138.16 35.2751 137.818 35.0928C137.477 34.9105 137.135 34.8193 136.793 34.8193C136.337 34.8193 135.904 34.8991 135.494 35.0586C135.084 35.1953 134.697 35.4915 134.332 35.9473C133.99 36.403 133.671 37.0524 133.375 37.8955C133.102 38.7158 132.862 39.8096 132.657 41.1768C132.452 42.5439 132.293 44.2188 132.179 46.2012C132.088 48.1608 132.042 50.5078 132.042 53.2422C132.042 54.2448 132.042 55.293 132.042 56.3867C132.042 57.4805 132.042 58.5173 132.042 59.4971C132.065 60.4541 132.076 61.3086 132.076 62.0605C132.099 62.7897 132.133 63.3024 132.179 63.5986L124.454 63.5303C124.568 59.3604 124.648 55.236 124.693 51.1572C124.739 47.0557 124.762 42.9199 124.762 38.75C124.762 35.013 124.739 31.3102 124.693 27.6416C124.671 23.9502 124.614 20.236 124.522 16.499L133.136 16.2939C132.999 17.8206 132.874 19.2562 132.76 20.6006C132.646 21.9222 132.543 23.221 132.452 24.4971C132.384 25.7503 132.327 27.0036 132.281 28.2568C132.236 29.4873 132.201 30.7633 132.179 32.085C132.885 30.9229 133.66 30.0228 134.503 29.3848C135.369 28.7467 136.189 28.2682 136.964 27.9492C137.761 27.6302 138.456 27.4365 139.049 27.3682C139.641 27.2998 140.029 27.2656 140.211 27.2656C141.578 27.2656 142.706 27.7214 143.595 28.6328C144.483 29.5443 145.178 30.7633 145.68 32.29C146.204 33.8167 146.568 35.5827 146.773 37.5879C146.979 39.5931 147.081 41.6895 147.081 43.877C147.081 45.6543 147.024 47.4658 146.91 49.3115C146.819 51.1572 146.705 52.9688 146.568 54.7461C146.432 56.5234 146.295 58.2324 146.158 59.873C146.021 61.5137 145.908 63.0176 145.816 64.3848L138.263 64.7949ZM170.255 64.0771C168.136 64.8063 166.199 65.2848 164.444 65.5127C162.713 65.7406 161.288 65.8545 160.172 65.8545C158.782 65.8545 157.563 65.5811 156.515 65.0342C155.466 64.4873 154.555 63.7581 153.78 62.8467C153.028 61.9352 152.402 60.887 151.9 59.7021C151.399 58.4945 151 57.2298 150.704 55.9082C150.408 54.5866 150.191 53.2536 150.055 51.9092C149.941 50.542 149.884 49.2546 149.884 48.0469C149.884 45.0391 150.123 42.2705 150.602 39.7412C151.08 37.1891 151.775 34.9902 152.687 33.1445C153.598 31.2988 154.726 29.8633 156.07 28.8379C157.415 27.7897 158.941 27.2656 160.65 27.2656C162.063 27.2656 163.351 27.6188 164.513 28.3252C165.675 29.0316 166.666 30.1139 167.486 31.5723C168.307 33.0306 168.933 34.8877 169.366 37.1436C169.822 39.3766 170.05 42.0312 170.05 45.1074C170.05 45.9733 170.027 46.8506 169.981 47.7393C169.959 48.6279 169.902 49.5508 169.811 50.5078L157.711 52.1143C157.802 52.9574 157.939 53.7549 158.121 54.5068C158.326 55.2588 158.588 55.931 158.907 56.5234C159.249 57.0931 159.648 57.5488 160.104 57.8906C160.559 58.2324 161.118 58.4033 161.778 58.4033C163.009 58.4033 164.239 58.335 165.47 58.1982C166.7 58.0387 167.988 57.8564 169.332 57.6514L170.255 64.0771ZM157.506 46.3037L163.18 45.2441V43.9453C163.18 42.0085 163.032 40.516 162.735 39.4678C162.439 38.3968 162.12 37.6107 161.778 37.1094C161.368 36.5169 160.901 36.1751 160.377 36.084C159.716 36.1523 159.192 36.46 158.805 37.0068C158.417 37.5537 158.121 38.2601 157.916 39.126C157.734 39.9691 157.62 40.9261 157.574 41.9971C157.529 43.068 157.506 44.1504 157.506 45.2441V46.3037ZM195.035 55.8398C194.944 58.5286 194.853 60.9098 194.762 62.9834C194.671 65.0342 194.488 66.8343 194.215 68.3838C193.941 69.9333 193.531 71.2321 192.984 72.2803C192.438 73.3285 191.674 74.1715 190.694 74.8096C189.737 75.4476 188.507 75.9033 187.003 76.1768C185.522 76.473 183.699 76.6211 181.534 76.6211C180.463 76.6211 179.312 76.5755 178.082 76.4844C176.852 76.416 175.53 76.2565 174.117 76.0059L174.391 68.4863C176.077 68.6003 177.558 68.6914 178.834 68.7598C180.133 68.8281 181.215 68.8851 182.081 68.9307C183.106 68.999 183.995 69.0446 184.747 69.0674C185.841 69.0674 186.661 68.4294 187.208 67.1533C187.778 65.8773 188.097 64.1113 188.165 61.8555C187.755 62.7669 187.288 63.5075 186.764 64.0771C186.262 64.6468 185.738 65.0911 185.191 65.4102C184.667 65.752 184.143 65.9798 183.619 66.0938C183.118 66.2077 182.651 66.2646 182.218 66.2646C181.056 66.2646 179.905 65.9115 178.766 65.2051C177.626 64.4987 176.601 63.3366 175.689 61.7188C174.801 60.0781 174.072 57.9476 173.502 55.3271C172.932 52.6839 172.647 49.4255 172.647 45.5518C172.647 42.5439 172.887 39.9007 173.365 37.6221C173.867 35.3434 174.527 33.4294 175.348 31.8799C176.168 30.3304 177.114 29.1683 178.185 28.3936C179.256 27.596 180.372 27.1973 181.534 27.1973C182.081 27.1973 182.662 27.2884 183.277 27.4707C183.915 27.653 184.553 27.9834 185.191 28.4619C185.829 28.9176 186.433 29.5443 187.003 30.3418C187.595 31.1165 188.108 32.1191 188.541 33.3496L188.473 29.1455L194.557 29.4531L195.035 55.8398ZM187.55 48.833C187.55 48.1266 187.538 47.2949 187.516 46.3379C187.516 45.3581 187.481 44.3555 187.413 43.3301C187.368 42.2819 187.265 41.2565 187.105 40.2539C186.946 39.2513 186.718 38.3512 186.422 37.5537C186.148 36.7562 185.784 36.1182 185.328 35.6396C184.872 35.1383 184.303 34.8877 183.619 34.8877C182.753 34.8877 182.07 35.2523 181.568 35.9814C181.09 36.7106 180.725 37.6449 180.475 38.7842C180.247 39.9235 180.11 41.1768 180.064 42.5439C180.019 43.9111 179.996 45.2327 179.996 46.5088C179.996 47.3975 180.007 48.3317 180.03 49.3115C180.076 50.2913 180.144 51.2712 180.235 52.251C180.326 53.208 180.463 54.1195 180.646 54.9854C180.828 55.8512 181.056 56.626 181.329 57.3096C181.603 57.9704 181.933 58.4945 182.32 58.8818C182.73 59.2692 183.209 59.4629 183.756 59.4629C184.439 59.4629 185.021 59.1895 185.499 58.6426C185.978 58.0729 186.365 57.3096 186.661 56.3525C186.98 55.3955 187.208 54.279 187.345 53.0029C187.481 51.7041 187.55 50.3141 187.55 48.833ZM220.67 31.2646C220.488 34.9333 220.362 38.5677 220.294 42.168C220.226 45.7454 220.191 49.3457 220.191 52.9688C220.191 55.1107 220.191 57.2298 220.191 59.3262C220.214 61.4225 220.26 63.5417 220.328 65.6836L213.526 65.8545V61.582C212.843 62.6986 212.079 63.5531 211.236 64.1455C210.393 64.738 209.584 65.1595 208.81 65.4102C208.058 65.6836 207.408 65.8317 206.861 65.8545C206.314 65.9001 205.995 65.9229 205.904 65.9229C204.469 65.6266 203.272 65 202.315 64.043C201.381 63.0632 200.629 61.8555 200.06 60.4199C199.513 58.9616 199.125 57.321 198.897 55.498C198.67 53.6751 198.556 51.7611 198.556 49.7559C198.556 48.0241 198.624 46.2581 198.761 44.458C198.897 42.6579 199.068 40.8919 199.273 39.1602C199.479 37.4056 199.706 35.7194 199.957 34.1016C200.208 32.4609 200.458 30.9342 200.709 29.5215L208.16 29.6582C207.955 31.0026 207.739 32.4609 207.511 34.0332C207.306 35.6055 207.112 37.2119 206.93 38.8525C206.77 40.4932 206.633 42.1452 206.52 43.8086C206.428 45.4492 206.383 47.0101 206.383 48.4912C206.383 49.8584 206.44 51.1344 206.554 52.3193C206.668 53.5042 206.85 54.541 207.101 55.4297C207.351 56.2956 207.67 56.9792 208.058 57.4805C208.468 57.959 208.969 58.1982 209.562 58.1982C210.336 58.1982 210.974 57.7311 211.476 56.7969C211.977 55.8626 212.364 54.6436 212.638 53.1396C212.934 51.613 213.128 49.904 213.219 48.0127C213.333 46.1214 213.39 44.2188 213.39 42.3047C213.39 40.8691 213.367 39.502 213.321 38.2031C213.276 36.9043 213.23 35.7422 213.185 34.7168C213.116 33.5319 213.048 32.4268 212.979 31.4014L220.67 31.2646ZM244.015 64.0771C241.896 64.8063 239.959 65.2848 238.204 65.5127C236.472 65.7406 235.048 65.8545 233.932 65.8545C232.542 65.8545 231.323 65.5811 230.274 65.0342C229.226 64.4873 228.315 63.7581 227.54 62.8467C226.788 61.9352 226.161 60.887 225.66 59.7021C225.159 58.4945 224.76 57.2298 224.464 55.9082C224.168 54.5866 223.951 53.2536 223.814 51.9092C223.701 50.542 223.644 49.2546 223.644 48.0469C223.644 45.0391 223.883 42.2705 224.361 39.7412C224.84 37.1891 225.535 34.9902 226.446 33.1445C227.358 31.2988 228.486 29.8633 229.83 28.8379C231.174 27.7897 232.701 27.2656 234.41 27.2656C235.823 27.2656 237.11 27.6188 238.272 28.3252C239.435 29.0316 240.426 30.1139 241.246 31.5723C242.066 33.0306 242.693 34.8877 243.126 37.1436C243.582 39.3766 243.81 42.0312 243.81 45.1074C243.81 45.9733 243.787 46.8506 243.741 47.7393C243.718 48.6279 243.661 49.5508 243.57 50.5078L231.471 52.1143C231.562 52.9574 231.699 53.7549 231.881 54.5068C232.086 55.2588 232.348 55.931 232.667 56.5234C233.009 57.0931 233.408 57.5488 233.863 57.8906C234.319 58.2324 234.877 58.4033 235.538 58.4033C236.769 58.4033 237.999 58.335 239.229 58.1982C240.46 58.0387 241.747 57.8564 243.092 57.6514L244.015 64.0771ZM231.266 46.3037L236.939 45.2441V43.9453C236.939 42.0085 236.791 40.516 236.495 39.4678C236.199 38.3968 235.88 37.6107 235.538 37.1094C235.128 36.5169 234.661 36.1751 234.137 36.084C233.476 36.1523 232.952 36.46 232.564 37.0068C232.177 37.5537 231.881 38.2601 231.676 39.126C231.493 39.9691 231.38 40.9261 231.334 41.9971C231.288 43.068 231.266 44.1504 231.266 45.2441V46.3037ZM254.439 62.2656C254.439 63.1087 254.36 63.8721 254.2 64.5557C254.041 65.2393 253.801 65.8773 253.482 66.4697C253.186 67.085 252.81 67.666 252.354 68.2129C251.922 68.7826 251.409 69.3636 250.816 69.9561L248.287 68.7939C248.447 68.6117 248.606 68.3952 248.766 68.1445C248.902 67.9167 249.05 67.6432 249.21 67.3242C249.369 67.028 249.506 66.6748 249.62 66.2646C248.663 66.0824 247.877 65.6266 247.262 64.8975C246.646 64.1683 246.339 63.291 246.339 62.2656C246.339 61.7188 246.441 61.1947 246.646 60.6934C246.874 60.1921 247.171 59.7591 247.535 59.3945C247.9 59.0299 248.321 58.7451 248.8 58.54C249.301 58.3122 249.837 58.1982 250.406 58.1982C250.953 58.1982 251.466 58.3122 251.944 58.54C252.446 58.7451 252.879 59.0299 253.243 59.3945C253.608 59.7591 253.893 60.1921 254.098 60.6934C254.326 61.1947 254.439 61.7188 254.439 62.2656Z" fill="white"/>
<path d="M19.0312 82.8603C21.0625 82.8603 22.8125 83.3759 24.2812 84.4071C25.7812 85.4384 27.0312 86.7978 28.0312 88.4853C29.0625 90.1415 29.875 92.0478 30.4688 94.204C31.0938 96.3603 31.5625 98.579 31.875 100.86C32.2188 103.11 32.4375 105.313 32.5312 107.47C32.6562 109.626 32.7188 111.563 32.7188 113.282C32.7188 117.188 32.4062 120.579 31.7812 123.454C31.1562 126.298 30.2969 128.657 29.2031 130.532C28.1406 132.407 26.9062 133.798 25.5 134.704C24.0938 135.61 22.6094 136.063 21.0469 136.063C20.1094 135.97 19.1562 135.751 18.1875 135.407C17.375 135.095 16.4844 134.626 15.5156 134.001C14.5781 133.345 13.6875 132.423 12.8438 131.235L13.7344 150.454H3.1875V86.4228L12.1875 85.7665V88.3446C12.5625 87.6259 12.9844 86.9384 13.4531 86.2821C13.9531 85.5946 14.4844 85.0009 15.0469 84.5009C15.6094 84.0009 16.2188 83.6103 16.875 83.329C17.5312 83.0165 18.25 82.8603 19.0312 82.8603ZM22.6406 113.282C22.6406 112.22 22.6094 110.97 22.5469 109.532C22.5156 108.063 22.4375 106.548 22.3125 104.985C22.1875 103.423 22 101.876 21.75 100.345C21.5 98.8134 21.1562 97.454 20.7188 96.2665C20.3125 95.0478 19.7969 94.0634 19.1719 93.3134C18.5781 92.5634 17.8438 92.1884 16.9688 92.1884C16.125 92.1884 15.3906 92.579 14.7656 93.3603C14.1406 94.1103 13.625 95.1415 13.2188 96.454C12.8438 97.7665 12.5625 99.2978 12.375 101.048C12.1875 102.767 12.0938 104.579 12.0938 106.485C12.0938 107.36 12.0938 108.438 12.0938 109.72C12.125 110.97 12.1875 112.298 12.2812 113.704C12.375 115.11 12.5312 116.517 12.75 117.923C13 119.329 13.3281 120.595 13.7344 121.72C14.1719 122.813 14.7188 123.72 15.375 124.438C16.0625 125.126 16.8906 125.47 17.8594 125.47C18.9219 125.47 19.7656 125.126 20.3906 124.438C21.0469 123.751 21.5312 122.845 21.8438 121.72C22.1875 120.563 22.4062 119.251 22.5 117.782C22.5938 116.313 22.6406 114.813 22.6406 113.282ZM64.8281 107.845C64.8281 111.657 64.6562 115.001 64.3125 117.876C63.9688 120.751 63.4688 123.251 62.8125 125.376C62.1875 127.47 61.4219 129.22 60.5156 130.626C59.6406 132.001 58.6562 133.11 57.5625 133.954C56.5 134.798 55.3438 135.392 54.0938 135.735C52.8438 136.079 51.5625 136.251 50.25 136.251C48.9375 136.251 47.6719 136.11 46.4531 135.829C45.2656 135.548 44.1562 135.032 43.125 134.282C42.0938 133.532 41.1406 132.517 40.2656 131.235C39.4219 129.954 38.7031 128.313 38.1094 126.313C37.5156 124.313 37.0469 121.923 36.7031 119.142C36.3906 116.36 36.2344 113.095 36.2344 109.345C36.2344 103.72 36.6406 99.1103 37.4531 95.5165C38.2969 91.9228 39.3906 89.0946 40.7344 87.0321C42.0781 84.9384 43.6094 83.5009 45.3281 82.7196C47.0469 81.9071 48.8125 81.5009 50.625 81.5009C51.7812 81.5009 52.9375 81.6259 54.0938 81.8759C55.2812 82.0946 56.3906 82.5478 57.4219 83.2353C58.4844 83.9228 59.4688 84.8759 60.375 86.0946C61.2812 87.3134 62.0625 88.9071 62.7188 90.8759C63.375 92.8134 63.8906 95.1728 64.2656 97.954C64.6406 100.735 64.8281 104.032 64.8281 107.845ZM54.75 108.22C54.75 105.22 54.6406 102.767 54.4219 100.86C54.2031 98.9228 53.9062 97.3915 53.5312 96.2665C53.1562 95.1415 52.7031 94.3759 52.1719 93.9696C51.6406 93.5321 51.0625 93.3134 50.4375 93.3134C49.7188 93.3134 49.0938 93.6259 48.5625 94.2509C48.0312 94.8446 47.5781 95.8134 47.2031 97.1571C46.8594 98.5009 46.5938 100.235 46.4062 102.36C46.2188 104.454 46.125 107.017 46.125 110.048C46.125 113.11 46.2344 115.657 46.4531 117.688C46.7031 119.688 47.0312 121.298 47.4375 122.517C47.875 123.704 48.375 124.548 48.9375 125.048C49.5312 125.548 50.1562 125.798 50.8125 125.798C52.1875 125.798 53.1875 124.376 53.8125 121.532C54.4375 118.688 54.75 114.251 54.75 108.22ZM98.5312 67.9071L97.3594 135.267H88.3594V130.485C87.4531 131.829 86.5781 132.876 85.7344 133.626C84.8906 134.345 84.1406 134.876 83.4844 135.22C82.7031 135.626 81.9844 135.876 81.3281 135.97C79.7344 135.97 78.1562 135.501 76.5938 134.563C75.0312 133.595 73.625 132.001 72.375 129.782C71.1562 127.563 70.1562 124.657 69.375 121.063C68.5938 117.438 68.2031 112.954 68.2031 107.61C68.2031 103.517 68.5312 99.9228 69.1875 96.829C69.875 93.704 70.7812 91.0946 71.9062 89.0009C73.0312 86.9071 74.3281 85.329 75.7969 84.2665C77.2656 83.204 78.7969 82.6728 80.3906 82.6728C81.2344 82.7353 82.0781 82.954 82.9219 83.329C83.6406 83.6728 84.4375 84.1884 85.3125 84.8759C86.1875 85.5634 87.0156 86.5321 87.7969 87.7821L87.1875 68.3759L98.5312 67.9071ZM88.6406 112.063C88.5781 109.938 88.5 107.767 88.4062 105.548C88.3438 103.329 88.1406 101.313 87.7969 99.5009C87.4531 97.6571 86.9219 96.1571 86.2031 95.0009C85.5156 93.8134 84.5312 93.2196 83.25 93.2196C82.0625 93.2196 81.125 93.704 80.4375 94.6728C79.7812 95.6415 79.2812 96.8915 78.9375 98.4228C78.625 99.954 78.4375 101.642 78.375 103.485C78.3125 105.329 78.2812 107.126 78.2812 108.876C78.2812 110.095 78.2969 111.376 78.3281 112.72C78.3906 114.063 78.4844 115.407 78.6094 116.751C78.7344 118.063 78.9219 119.313 79.1719 120.501C79.4219 121.688 79.7344 122.751 80.1094 123.688C80.4844 124.595 80.9375 125.313 81.4688 125.845C82.0312 126.376 82.6875 126.642 83.4375 126.642C84.375 126.642 85.1719 126.267 85.8281 125.517C86.4844 124.735 87.0156 123.688 87.4219 122.376C87.8594 121.063 88.1719 119.532 88.3594 117.782C88.5469 116.001 88.6406 114.095 88.6406 112.063ZM130.547 133.438C127.641 134.438 124.984 135.095 122.578 135.407C120.203 135.72 118.25 135.876 116.719 135.876C114.812 135.876 113.141 135.501 111.703 134.751C110.266 134.001 109.016 133.001 107.953 131.751C106.922 130.501 106.062 129.063 105.375 127.438C104.688 125.782 104.141 124.048 103.734 122.235C103.328 120.423 103.031 118.595 102.844 116.751C102.688 114.876 102.609 113.11 102.609 111.454C102.609 107.329 102.938 103.532 103.594 100.063C104.25 96.5634 105.203 93.5478 106.453 91.0165C107.703 88.4853 109.25 86.5165 111.094 85.1103C112.938 83.6728 115.031 82.954 117.375 82.954C119.312 82.954 121.078 83.4384 122.672 84.4071C124.266 85.3759 125.625 86.8603 126.75 88.8603C127.875 90.8603 128.734 93.4071 129.328 96.5009C129.953 99.5634 130.266 103.204 130.266 107.423C130.266 108.61 130.234 109.813 130.172 111.032C130.141 112.251 130.062 113.517 129.938 114.829L113.344 117.032C113.469 118.188 113.656 119.282 113.906 120.313C114.188 121.345 114.547 122.267 114.984 123.079C115.453 123.86 116 124.485 116.625 124.954C117.25 125.423 118.016 125.657 118.922 125.657C120.609 125.657 122.297 125.563 123.984 125.376C125.672 125.157 127.438 124.907 129.281 124.626L130.547 133.438ZM113.062 109.063L120.844 107.61V105.829C120.844 103.173 120.641 101.126 120.234 99.6884C119.828 98.2196 119.391 97.1415 118.922 96.454C118.359 95.6415 117.719 95.1728 117 95.0478C116.094 95.1415 115.375 95.5634 114.844 96.3134C114.312 97.0634 113.906 98.0321 113.625 99.2196C113.375 100.376 113.219 101.688 113.156 103.157C113.094 104.626 113.062 106.11 113.062 107.61V109.063Z" fill="white"/>
<path d="M177.516 133.438C174.609 134.438 171.953 135.095 169.547 135.407C167.172 135.72 165.219 135.876 163.688 135.876C161.781 135.876 160.109 135.501 158.672 134.751C157.234 134.001 155.984 133.001 154.922 131.751C153.891 130.501 153.031 129.063 152.344 127.438C151.656 125.782 151.109 124.048 150.703 122.235C150.297 120.423 150 118.595 149.812 116.751C149.656 114.876 149.578 113.11 149.578 111.454C149.578 107.329 149.906 103.532 150.562 100.063C151.219 96.5634 152.172 93.5478 153.422 91.0165C154.672 88.4853 156.219 86.5165 158.062 85.1103C159.906 83.6728 162 82.954 164.344 82.954C166.281 82.954 168.047 83.4384 169.641 84.4071C171.234 85.3759 172.594 86.8603 173.719 88.8603C174.844 90.8603 175.703 93.4071 176.297 96.5009C176.922 99.5634 177.234 103.204 177.234 107.423C177.234 108.61 177.203 109.813 177.141 111.032C177.109 112.251 177.031 113.517 176.906 114.829L160.312 117.032C160.438 118.188 160.625 119.282 160.875 120.313C161.156 121.345 161.516 122.267 161.953 123.079C162.422 123.86 162.969 124.485 163.594 124.954C164.219 125.423 164.984 125.657 165.891 125.657C167.578 125.657 169.266 125.563 170.953 125.376C172.641 125.157 174.406 124.907 176.25 124.626L177.516 133.438ZM160.031 109.063L167.812 107.61V105.829C167.812 103.173 167.609 101.126 167.203 99.6884C166.797 98.2196 166.359 97.1415 165.891 96.454C165.328 95.6415 164.688 95.1728 163.969 95.0478C163.062 95.1415 162.344 95.5634 161.812 96.3134C161.281 97.0634 160.875 98.0321 160.594 99.2196C160.344 100.376 160.188 101.688 160.125 103.157C160.062 104.626 160.031 106.11 160.031 107.61V109.063ZM200.953 134.423C201.641 129.392 202.125 124.298 202.406 119.142C202.719 113.985 202.875 108.579 202.875 102.923C202.875 101.017 202.75 99.5009 202.5 98.3759C202.25 97.2196 201.922 96.3446 201.516 95.7509C201.109 95.1259 200.672 94.7353 200.203 94.579C199.734 94.3915 199.281 94.2978 198.844 94.2978C198.219 94.2978 197.625 94.4071 197.062 94.6259C196.531 94.8446 196.031 95.2665 195.562 95.8915C195.094 96.5165 194.656 97.3915 194.25 98.5165C193.875 99.6415 193.547 101.126 193.266 102.97C192.984 104.813 192.766 107.063 192.609 109.72C192.484 112.345 192.422 115.485 192.422 119.142C192.422 120.454 192.422 121.829 192.422 123.267C192.422 124.673 192.422 126.017 192.422 127.298C192.453 128.579 192.469 129.72 192.469 130.72C192.5 131.688 192.547 132.376 192.609 132.782L182.016 132.688C182.109 129.845 182.172 127.313 182.203 125.095C182.266 122.845 182.312 120.782 182.344 118.907C182.375 117.032 182.391 115.282 182.391 113.657C182.422 112.001 182.438 110.376 182.438 108.782C182.438 107.345 182.422 105.876 182.391 104.376C182.391 102.845 182.375 101.204 182.344 99.454C182.344 97.704 182.312 95.7978 182.25 93.7353C182.219 91.6415 182.172 89.329 182.109 86.7978L193.078 86.5165L192.891 91.2978C193.734 89.704 194.641 88.4384 195.609 87.5009C196.578 86.5321 197.531 85.7821 198.469 85.2509C199.438 84.7196 200.375 84.3759 201.281 84.2196C202.188 84.0321 203 83.9384 203.719 83.9384C205.656 83.9384 207.25 84.6103 208.5 85.954C209.75 87.2978 210.734 89.0946 211.453 91.3446C212.203 93.5634 212.719 96.1103 213 98.9853C213.281 101.86 213.422 104.845 213.422 107.938C213.422 110.188 213.359 112.47 213.234 114.782C213.141 117.095 213.016 119.376 212.859 121.626C212.734 123.845 212.578 126.001 212.391 128.095C212.234 130.157 212.094 132.079 211.969 133.86L200.953 134.423ZM235.125 71.4228C234.875 73.954 234.656 76.4228 234.469 78.829C234.281 81.204 234.109 83.579 233.953 85.954C235.141 85.8915 236.312 85.8446 237.469 85.8134C238.656 85.7509 239.859 85.6571 241.078 85.5321L240.75 95.0478C239.562 94.9853 238.344 94.954 237.094 94.954C235.875 94.954 234.672 94.954 233.484 94.954C233.234 99.454 233.047 103.86 232.922 108.173C232.828 112.454 232.781 116.782 232.781 121.157C232.781 123.407 232.797 125.673 232.828 127.954C232.891 130.204 232.953 132.485 233.016 134.798L222.703 134.985C222.922 128.267 223.109 121.626 223.266 115.063C223.422 108.47 223.5 101.829 223.5 95.1415C222.312 95.204 221.109 95.2665 219.891 95.329C218.672 95.3603 217.469 95.4228 216.281 95.5165L216.656 85.2509C217.75 85.4071 218.875 85.5321 220.031 85.6259C221.188 85.7196 222.312 85.7978 223.406 85.8603C223.406 83.4228 223.375 81.0321 223.312 78.6884C223.281 76.3446 223.219 73.954 223.125 71.5165L235.125 71.4228ZM271.922 105.829C270.922 105.985 269.875 106.173 268.781 106.392C267.844 106.579 266.781 106.829 265.594 107.142C264.406 107.454 263.219 107.813 262.031 108.22C262.344 106.657 262.547 105.298 262.641 104.142C262.766 102.954 262.828 101.876 262.828 100.907C262.828 99.2196 262.672 97.9071 262.359 96.9696C262.078 96.0009 261.75 95.2821 261.375 94.8134C261 94.3446 260.625 94.0634 260.25 93.9696C259.906 93.8759 259.672 93.829 259.547 93.829C258.547 93.829 257.734 94.2509 257.109 95.0946C256.484 95.9071 256 97.0009 255.656 98.3759C255.312 99.7196 255.078 101.267 254.953 103.017C254.828 104.767 254.766 106.563 254.766 108.407C254.766 109.72 254.781 111.032 254.812 112.345C254.844 113.657 254.891 114.97 254.953 116.282L255.609 134.704L244.781 135.454C244.781 127.923 244.703 121.142 244.547 115.11C244.422 109.048 244.281 103.876 244.125 99.5946C243.938 94.5946 243.734 90.1415 243.516 86.2353L252.75 85.6259L253.219 90.9228C254.031 88.9228 254.984 87.3446 256.078 86.1884C257.203 85.0009 258.312 84.1259 259.406 83.5634C260.531 82.9696 261.547 82.5946 262.453 82.4384C263.391 82.2821 264.094 82.204 264.562 82.204C266.156 82.204 267.453 82.7196 268.453 83.7509C269.453 84.7509 270.234 86.0478 270.797 87.6415C271.359 89.2353 271.734 90.9853 271.922 92.8915C272.141 94.7978 272.25 96.6415 272.25 98.4228C272.25 99.829 272.203 101.173 272.109 102.454C272.047 103.704 271.984 104.829 271.922 105.829ZM303.234 104.845C303.234 109.782 303.203 114.72 303.141 119.657C303.109 124.595 303.016 129.735 302.859 135.079L294.703 134.61V128.282C293.766 129.97 292.703 131.267 291.516 132.173C290.328 133.048 289.203 133.704 288.141 134.142C286.891 134.642 285.656 134.923 284.438 134.985C282.938 134.985 281.531 134.657 280.219 134.001C278.906 133.313 277.766 132.407 276.797 131.282C275.828 130.157 275.062 128.876 274.5 127.438C273.969 125.97 273.703 124.454 273.703 122.892C273.703 121.11 274.078 119.36 274.828 117.642C275.609 115.892 276.922 114.313 278.766 112.907C281.234 111.001 283.375 109.407 285.188 108.126C287 106.845 288.5 105.688 289.688 104.657C290.906 103.595 291.797 102.595 292.359 101.657C292.953 100.688 293.25 99.579 293.25 98.329C293.25 96.2665 292.906 94.7353 292.219 93.7353C291.531 92.704 290.625 92.1884 289.5 92.1884C288.812 92.1884 288.219 92.3759 287.719 92.7509C287.25 93.0946 286.859 93.5634 286.547 94.1571C286.266 94.7196 286.047 95.3603 285.891 96.079C285.766 96.7665 285.703 97.454 285.703 98.1415C285.703 98.6103 285.719 99.1259 285.75 99.6884C285.812 100.251 285.922 100.845 286.078 101.47L275.297 101.657C275.234 101.126 275.188 100.626 275.156 100.157C275.125 99.6571 275.109 99.1728 275.109 98.704C275.109 96.7665 275.438 94.8603 276.094 92.9853C276.75 91.079 277.703 89.3915 278.953 87.9228C280.234 86.4228 281.781 85.2196 283.594 84.3134C285.406 83.4071 287.484 82.954 289.828 82.954C292.859 82.954 295.25 83.5946 297 84.8759C298.781 86.1259 300.125 87.7821 301.031 89.8446C301.969 91.9071 302.562 94.2509 302.812 96.8759C303.094 99.4696 303.234 102.126 303.234 104.845ZM292.688 118.11C292.844 117.329 292.984 116.438 293.109 115.438C293.234 114.595 293.344 113.579 293.438 112.392C293.531 111.173 293.609 109.813 293.672 108.313C293.172 109.001 292.688 109.61 292.219 110.142C291.75 110.673 291.312 111.142 290.906 111.548C290.438 112.017 290 112.438 289.594 112.813C288.875 113.407 288.109 114.079 287.297 114.829C286.484 115.548 285.734 116.313 285.047 117.126C284.391 117.938 283.828 118.782 283.359 119.657C282.922 120.501 282.703 121.329 282.703 122.142C282.703 123.017 283 123.829 283.594 124.579C284.188 125.298 284.922 125.657 285.797 125.657C286.453 125.657 287.125 125.47 287.812 125.095C288.531 124.72 289.203 124.188 289.828 123.501C290.484 122.813 291.062 122.017 291.562 121.11C292.062 120.204 292.438 119.204 292.688 118.11ZM336.797 105.829C335.797 105.985 334.75 106.173 333.656 106.392C332.719 106.579 331.656 106.829 330.469 107.142C329.281 107.454 328.094 107.813 326.906 108.22C327.219 106.657 327.422 105.298 327.516 104.142C327.641 102.954 327.703 101.876 327.703 100.907C327.703 99.2196 327.547 97.9071 327.234 96.9696C326.953 96.0009 326.625 95.2821 326.25 94.8134C325.875 94.3446 325.5 94.0634 325.125 93.9696C324.781 93.8759 324.547 93.829 324.422 93.829C323.422 93.829 322.609 94.2509 321.984 95.0946C321.359 95.9071 320.875 97.0009 320.531 98.3759C320.188 99.7196 319.953 101.267 319.828 103.017C319.703 104.767 319.641 106.563 319.641 108.407C319.641 109.72 319.656 111.032 319.688 112.345C319.719 113.657 319.766 114.97 319.828 116.282L320.484 134.704L309.656 135.454C309.656 127.923 309.578 121.142 309.422 115.11C309.297 109.048 309.156 103.876 309 99.5946C308.812 94.5946 308.609 90.1415 308.391 86.2353L317.625 85.6259L318.094 90.9228C318.906 88.9228 319.859 87.3446 320.953 86.1884C322.078 85.0009 323.188 84.1259 324.281 83.5634C325.406 82.9696 326.422 82.5946 327.328 82.4384C328.266 82.2821 328.969 82.204 329.438 82.204C331.031 82.204 332.328 82.7196 333.328 83.7509C334.328 84.7509 335.109 86.0478 335.672 87.6415C336.234 89.2353 336.609 90.9853 336.797 92.8915C337.016 94.7978 337.125 96.6415 337.125 98.4228C337.125 99.829 337.078 101.173 336.984 102.454C336.922 103.704 336.859 104.829 336.797 105.829ZM352.078 66.7353C351.203 75.3915 350.516 84.1259 350.016 92.9384C349.516 101.751 349.219 110.423 349.125 118.954L342.891 119.142C342.672 110.548 342.375 101.829 342 92.9853C341.656 84.1415 341.25 75.4228 340.781 66.829L352.078 66.7353ZM351.234 130.767C351.234 131.517 351.078 132.22 350.766 132.876C350.484 133.532 350.094 134.11 349.594 134.61C349.125 135.079 348.547 135.454 347.859 135.735C347.203 136.017 346.5 136.157 345.75 136.157C345 136.157 344.297 136.017 343.641 135.735C343.016 135.454 342.453 135.079 341.953 134.61C341.453 134.11 341.062 133.532 340.781 132.876C340.5 132.22 340.359 131.517 340.359 130.767C340.359 130.017 340.5 129.329 340.781 128.704C341.062 128.048 341.453 127.47 341.953 126.97C342.453 126.47 343.016 126.079 343.641 125.798C344.297 125.517 345 125.376 345.75 125.376C346.5 125.376 347.203 125.517 347.859 125.798C348.547 126.079 349.125 126.47 349.594 126.97C350.094 127.47 350.484 128.048 350.766 128.704C351.078 129.329 351.234 130.017 351.234 130.767Z" fill="#FAFF00"/>
</svg>
