<svg width="273" height="125" viewBox="0 0 273 125" fill="none" xmlns="http://www.w3.org/2000/svg">
<path d="M15.9478 43.1475C15.9478 44.6133 15.79 45.9028 15.4746 47.0161C15.1777 48.1108 14.7788 49.0571 14.2778 49.855C13.7954 50.6343 13.248 51.2837 12.6357 51.8032C12.0234 52.3042 11.3926 52.7031 10.7432 53C10.1123 53.2969 9.5 53.501 8.90625 53.6123C8.33105 53.7422 7.83008 53.8071 7.40332 53.8071C7.18066 53.8071 6.87451 53.7886 6.48486 53.7515C6.09521 53.7329 5.6499 53.6772 5.14893 53.5845C4.64795 53.4917 4.09131 53.3525 3.479 53.167C2.88525 53 2.25439 52.7588 1.58643 52.4434L1.89258 45.4297C2.9873 46.3574 3.96143 46.979 4.81494 47.2944C5.68701 47.6099 6.41992 47.7676 7.01367 47.7676C8.16406 47.7676 9.02686 47.3501 9.60205 46.5151C10.1958 45.6802 10.4927 44.5947 10.4927 43.2588C10.4927 42.3682 10.27 41.3755 9.82471 40.2808C9.39795 39.1675 8.62793 37.9707 7.51465 36.6904C6.75391 35.7998 5.96533 34.8721 5.14893 33.9072C4.33252 32.9424 3.59033 31.9126 2.92236 30.8179C2.25439 29.7231 1.70703 28.5449 1.28027 27.2832C0.853516 26.0215 0.640137 24.6577 0.640137 23.1919C0.640137 21.3364 0.890625 19.7314 1.3916 18.377C1.91113 17.0225 2.59766 15.8999 3.45117 15.0093C4.30469 14.1187 5.27881 13.46 6.37354 13.0332C7.48682 12.5879 8.64648 12.3652 9.85254 12.3652C10.9102 12.3652 11.9863 12.5137 13.0811 12.8105C14.1943 13.0889 15.3076 13.5249 16.4209 14.1187L15.8921 21.1323C15.4097 20.52 14.8994 20.0376 14.3613 19.6851C13.8418 19.314 13.3315 19.0356 12.8306 18.8501C12.3481 18.6646 11.8936 18.5439 11.4668 18.4883C11.0586 18.4326 10.7153 18.4048 10.437 18.4048C9.89893 18.4048 9.39795 18.5439 8.93408 18.8223C8.48877 19.082 8.09912 19.4438 7.76514 19.9077C7.44971 20.353 7.19922 20.8911 7.01367 21.522C6.82812 22.1343 6.73535 22.7837 6.73535 23.4702C6.73535 24.5278 6.95801 25.4834 7.40332 26.3369C7.86719 27.1904 8.44238 28.0347 9.12891 28.8696C9.81543 29.7046 10.5483 30.5674 11.3276 31.458C12.1255 32.3301 12.8677 33.3228 13.5542 34.436C14.2407 35.5308 14.8066 36.7925 15.252 38.2212C15.7158 39.6313 15.9478 41.2734 15.9478 43.1475ZM34.6509 52.2485C32.9253 52.8423 31.3481 53.2319 29.9194 53.4175C28.5093 53.603 27.3496 53.6958 26.4404 53.6958C25.3086 53.6958 24.3159 53.4731 23.4624 53.0278C22.6089 52.5825 21.8667 51.9888 21.2358 51.2466C20.6235 50.5044 20.1133 49.6509 19.7051 48.686C19.2969 47.7026 18.9722 46.6729 18.731 45.5967C18.4897 44.5205 18.3135 43.4351 18.2021 42.3403C18.1094 41.2271 18.063 40.1787 18.063 39.1953C18.063 36.7461 18.2578 34.4917 18.6475 32.4321C19.0371 30.354 19.603 28.5635 20.3452 27.0605C21.0874 25.5576 22.0059 24.3887 23.1006 23.5537C24.1953 22.7002 25.4385 22.2734 26.8301 22.2734C27.9805 22.2734 29.0288 22.561 29.9751 23.1362C30.9214 23.7114 31.7285 24.5928 32.3965 25.7803C33.0645 26.9678 33.5747 28.48 33.9272 30.3169C34.2983 32.1353 34.4839 34.2969 34.4839 36.8018C34.4839 37.5068 34.4653 38.2212 34.4282 38.9448C34.4097 39.6685 34.3633 40.4199 34.2891 41.1992L24.4365 42.5073C24.5107 43.1938 24.6221 43.8433 24.7705 44.4556C24.9375 45.0679 25.1509 45.6152 25.4106 46.0977C25.689 46.5615 26.0137 46.9326 26.3848 47.2109C26.7559 47.4893 27.2104 47.6284 27.7485 47.6284C28.7505 47.6284 29.7524 47.5728 30.7544 47.4614C31.7563 47.3315 32.8047 47.1831 33.8994 47.0161L34.6509 52.2485ZM24.2695 37.7759L28.8896 36.9131V35.8555C28.8896 34.2783 28.769 33.063 28.5278 32.2095C28.2866 31.3374 28.0269 30.6973 27.7485 30.2891C27.4146 29.8066 27.0342 29.5283 26.6074 29.4541C26.0693 29.5098 25.6426 29.7603 25.3271 30.2056C25.0117 30.6509 24.7705 31.2261 24.6035 31.9312C24.4551 32.6177 24.3623 33.397 24.3252 34.269C24.2881 35.1411 24.2695 36.0225 24.2695 36.9131V37.7759ZM63.2065 35.271C63.2065 38.2026 63.188 41.1343 63.1509 44.0659C63.1323 46.9976 63.0767 50.0498 62.9839 53.2227L58.1411 52.9443V49.187C57.5845 50.189 56.9536 50.959 56.2485 51.4971C55.5435 52.0166 54.8755 52.4062 54.2446 52.666C53.5024 52.9629 52.7695 53.1299 52.0459 53.167C51.1553 53.167 50.3203 52.9722 49.541 52.5825C48.7617 52.1743 48.0845 51.6362 47.5093 50.9683C46.9341 50.3003 46.4795 49.5396 46.1455 48.686C45.8301 47.814 45.6724 46.9141 45.6724 45.9863C45.6724 44.9287 45.895 43.8896 46.3403 42.8691C46.8042 41.8301 47.5835 40.8931 48.6782 40.0581C50.144 38.9263 51.415 37.98 52.4912 37.2192C53.5674 36.4585 54.458 35.772 55.1631 35.1597C55.8867 34.5288 56.4155 33.9351 56.7495 33.3784C57.1021 32.8032 57.2783 32.1445 57.2783 31.4023C57.2783 30.1777 57.0742 29.2686 56.666 28.6748C56.2578 28.0625 55.7197 27.7563 55.0518 27.7563C54.6436 27.7563 54.291 27.8677 53.9941 28.0903C53.7158 28.2944 53.4839 28.5728 53.2983 28.9253C53.1313 29.2593 53.0015 29.6396 52.9087 30.0664C52.8345 30.4746 52.7974 30.8828 52.7974 31.291C52.7974 31.5693 52.8066 31.8755 52.8252 32.2095C52.8623 32.5435 52.9272 32.896 53.02 33.2671L46.6187 33.3784C46.5815 33.063 46.5537 32.7661 46.5352 32.4878C46.5166 32.1909 46.5073 31.9033 46.5073 31.625C46.5073 30.4746 46.7021 29.3428 47.0918 28.2295C47.4814 27.0977 48.0474 26.0957 48.7896 25.2236C49.5503 24.333 50.4688 23.6187 51.5449 23.0806C52.6211 22.5425 53.855 22.2734 55.2466 22.2734C57.0464 22.2734 58.4658 22.6538 59.5049 23.4146C60.5625 24.1567 61.3604 25.1401 61.8984 26.3647C62.4551 27.5894 62.8076 28.981 62.9561 30.5396C63.123 32.0796 63.2065 33.6567 63.2065 35.271ZM56.9443 43.1475C57.0371 42.6836 57.1206 42.1548 57.1948 41.561C57.269 41.0601 57.334 40.457 57.3896 39.752C57.4453 39.0283 57.4917 38.2212 57.5288 37.3306C57.2319 37.7388 56.9443 38.1006 56.666 38.416C56.3877 38.7314 56.1279 39.0098 55.8867 39.251C55.6084 39.5293 55.3486 39.7798 55.1074 40.0024C54.6807 40.355 54.2261 40.7539 53.7437 41.1992C53.2612 41.626 52.8159 42.0806 52.4077 42.563C52.0181 43.0454 51.6841 43.5464 51.4058 44.0659C51.146 44.5669 51.0161 45.0586 51.0161 45.541C51.0161 46.0605 51.1924 46.543 51.5449 46.9883C51.8975 47.415 52.3335 47.6284 52.853 47.6284C53.2427 47.6284 53.6416 47.5171 54.0498 47.2944C54.4766 47.0718 54.8755 46.7563 55.2466 46.3481C55.6362 45.9399 55.9795 45.4668 56.2764 44.9287C56.5732 44.3906 56.7959 43.7969 56.9443 43.1475ZM79.1543 30.1499C78.8945 29.8159 78.5791 29.5562 78.208 29.3706C77.8369 29.1851 77.4658 29.0459 77.0947 28.9531C76.7236 28.8604 76.3804 28.8047 76.0649 28.7861C75.7495 28.749 75.5269 28.7305 75.397 28.7305C74.8403 28.7305 74.3394 28.9717 73.894 29.4541C73.4673 29.9365 73.0962 30.623 72.7808 31.5137C72.4839 32.4043 72.252 33.4897 72.085 34.77C71.9365 36.0317 71.8623 37.4512 71.8623 39.0283C71.8623 40.5498 71.9644 41.9414 72.1685 43.2031C72.3911 44.4463 72.7715 45.5225 73.3096 46.4316C73.8477 47.3223 74.5713 48.0366 75.4805 48.5747C76.3896 49.1128 77.54 49.4282 78.9316 49.521L78.7646 54.3081C78.4492 54.3452 78.1338 54.373 77.8184 54.3916C77.5215 54.4102 77.2246 54.4194 76.9277 54.4194C75.332 54.4194 73.9497 54.2153 72.7808 53.8071C71.6304 53.4175 70.647 52.8608 69.8306 52.1372C69.0142 51.4136 68.3462 50.5601 67.8267 49.5767C67.3257 48.5747 66.9268 47.4893 66.6299 46.3203C66.333 45.1328 66.1289 43.8804 66.0176 42.563C65.9248 41.2271 65.8784 39.8633 65.8784 38.4717C65.8784 37.5068 65.897 36.4399 65.9341 35.271C65.9897 34.0835 66.1011 32.896 66.2681 31.7085C66.4536 30.5024 66.7227 29.3335 67.0752 28.2017C67.4463 27.0698 67.9473 26.0679 68.5781 25.1958C69.209 24.3052 69.9976 23.6001 70.9438 23.0806C71.9087 22.5425 73.0684 22.2734 74.4229 22.2734C75.0166 22.2734 75.5918 22.3198 76.1484 22.4126C76.7051 22.5054 77.2153 22.626 77.6792 22.7744C78.1431 22.9043 78.542 23.0527 78.876 23.2197C79.21 23.3682 79.4512 23.5073 79.5996 23.6372L79.1543 30.1499ZM93.0425 52.833C93.1724 51.9053 93.2837 50.9497 93.3765 49.9663C93.4692 48.9829 93.5527 47.9995 93.627 47.0161C93.7012 46.0327 93.7661 45.0679 93.8218 44.1216C93.8774 43.1753 93.9238 42.2754 93.9609 41.4219C94.0352 39.4365 94.0908 37.479 94.1279 35.5493C94.1279 33.9536 94.063 32.6919 93.9331 31.7642C93.8032 30.8179 93.627 30.1035 93.4043 29.6211C93.2002 29.1201 92.959 28.7954 92.6807 28.647C92.4023 28.4985 92.124 28.4243 91.8457 28.4243C91.4746 28.4243 91.1221 28.4893 90.7881 28.6191C90.4541 28.7305 90.1387 28.9717 89.8418 29.3428C89.5635 29.7139 89.3037 30.2427 89.0625 30.9292C88.8398 31.5972 88.645 32.4878 88.478 33.6011C88.311 34.7144 88.1812 36.0781 88.0884 37.6924C88.0142 39.2881 87.9771 41.1992 87.9771 43.4258C87.9771 44.2422 87.9771 45.0957 87.9771 45.9863C87.9771 46.877 87.9771 47.7212 87.9771 48.519C87.9956 49.2983 88.0049 49.9941 88.0049 50.6064C88.0234 51.2002 88.0513 51.6177 88.0884 51.8589L81.7983 51.8032C81.8911 48.4077 81.9561 45.0493 81.9932 41.728C82.0303 38.3882 82.0488 35.0205 82.0488 31.625C82.0488 28.582 82.0303 25.5669 81.9932 22.5796C81.9746 19.5737 81.9282 16.5493 81.854 13.5063L88.8677 13.3394C88.7563 14.5825 88.6543 15.7515 88.5615 16.8462C88.4688 17.9224 88.3853 18.98 88.311 20.019C88.2554 21.0396 88.209 22.0601 88.1719 23.0806C88.1348 24.0825 88.1069 25.1216 88.0884 26.1978C88.6636 25.2515 89.2944 24.5186 89.981 23.999C90.686 23.4795 91.354 23.0898 91.9849 22.8301C92.6343 22.5703 93.2002 22.4126 93.6826 22.3569C94.165 22.3013 94.4805 22.2734 94.6289 22.2734C95.7422 22.2734 96.6606 22.6445 97.3843 23.3867C98.1079 24.1289 98.6738 25.1216 99.082 26.3647C99.5088 27.6079 99.8057 29.0459 99.9727 30.6787C100.14 32.3115 100.223 34.0186 100.223 35.7998C100.223 37.2471 100.177 38.7222 100.084 40.2251C100.01 41.728 99.917 43.2031 99.8057 44.6504C99.6943 46.0977 99.583 47.4893 99.4717 48.8252C99.3604 50.1611 99.2676 51.3857 99.1934 52.499L93.0425 52.833ZM119.093 52.2485C117.368 52.8423 115.791 53.2319 114.362 53.4175C112.952 53.603 111.792 53.6958 110.883 53.6958C109.751 53.6958 108.758 53.4731 107.905 53.0278C107.051 52.5825 106.309 51.9888 105.678 51.2466C105.066 50.5044 104.556 49.6509 104.147 48.686C103.739 47.7026 103.415 46.6729 103.173 45.5967C102.932 44.5205 102.756 43.4351 102.645 42.3403C102.552 41.2271 102.505 40.1787 102.505 39.1953C102.505 36.7461 102.7 34.4917 103.09 32.4321C103.479 30.354 104.045 28.5635 104.788 27.0605C105.53 25.5576 106.448 24.3887 107.543 23.5537C108.638 22.7002 109.881 22.2734 111.272 22.2734C112.423 22.2734 113.471 22.561 114.417 23.1362C115.364 23.7114 116.171 24.5928 116.839 25.7803C117.507 26.9678 118.017 28.48 118.37 30.3169C118.741 32.1353 118.926 34.2969 118.926 36.8018C118.926 37.5068 118.908 38.2212 118.871 38.9448C118.852 39.6685 118.806 40.4199 118.731 41.1992L108.879 42.5073C108.953 43.1938 109.064 43.8433 109.213 44.4556C109.38 45.0679 109.593 45.6152 109.853 46.0977C110.131 46.5615 110.456 46.9326 110.827 47.2109C111.198 47.4893 111.653 47.6284 112.191 47.6284C113.193 47.6284 114.195 47.5728 115.197 47.4614C116.199 47.3315 117.247 47.1831 118.342 47.0161L119.093 52.2485ZM108.712 37.7759L113.332 36.9131V35.8555C113.332 34.2783 113.211 33.063 112.97 32.2095C112.729 31.3374 112.469 30.6973 112.191 30.2891C111.857 29.8066 111.477 29.5283 111.05 29.4541C110.512 29.5098 110.085 29.7603 109.77 30.2056C109.454 30.6509 109.213 31.2261 109.046 31.9312C108.897 32.6177 108.805 33.397 108.768 34.269C108.73 35.1411 108.712 36.0225 108.712 36.9131V37.7759ZM139.271 45.541C139.197 47.7305 139.123 49.6694 139.049 51.3579C138.975 53.0278 138.826 54.4937 138.604 55.7554C138.381 57.0171 138.047 58.0747 137.602 58.9282C137.156 59.7817 136.535 60.4683 135.737 60.9878C134.958 61.5073 133.956 61.8784 132.731 62.1011C131.525 62.3423 130.041 62.4629 128.278 62.4629C127.406 62.4629 126.469 62.4258 125.467 62.3516C124.465 62.2959 123.389 62.166 122.238 61.9619L122.461 55.8389C123.834 55.9316 125.04 56.0059 126.079 56.0615C127.137 56.1172 128.018 56.1636 128.723 56.2007C129.558 56.2563 130.282 56.2935 130.894 56.312C131.785 56.312 132.453 55.7925 132.898 54.7534C133.362 53.7144 133.622 52.2764 133.677 50.4395C133.343 51.1816 132.963 51.7847 132.536 52.2485C132.128 52.7124 131.701 53.0742 131.256 53.334C130.829 53.6123 130.402 53.7979 129.976 53.8906C129.567 53.9834 129.187 54.0298 128.834 54.0298C127.888 54.0298 126.951 53.7422 126.023 53.167C125.096 52.5918 124.261 51.6455 123.519 50.3281C122.795 48.9922 122.201 47.2573 121.737 45.1235C121.273 42.9712 121.042 40.3179 121.042 37.1636C121.042 34.7144 121.236 32.562 121.626 30.7065C122.034 28.8511 122.572 27.2925 123.24 26.0308C123.908 24.769 124.678 23.8228 125.55 23.1919C126.422 22.5425 127.332 22.2178 128.278 22.2178C128.723 22.2178 129.196 22.292 129.697 22.4404C130.217 22.5889 130.736 22.8579 131.256 23.2476C131.775 23.6187 132.267 24.1289 132.731 24.7783C133.213 25.4092 133.631 26.2256 133.983 27.2275L133.928 23.8042L138.882 24.0547L139.271 45.541ZM133.176 39.8354C133.176 39.2603 133.167 38.583 133.148 37.8037C133.148 37.0059 133.121 36.1895 133.065 35.3545C133.028 34.501 132.944 33.666 132.814 32.8496C132.685 32.0332 132.499 31.3003 132.258 30.6509C132.035 30.0015 131.738 29.4819 131.367 29.0923C130.996 28.6841 130.532 28.48 129.976 28.48C129.271 28.48 128.714 28.7769 128.306 29.3706C127.916 29.9644 127.619 30.7251 127.415 31.6528C127.229 32.5806 127.118 33.6011 127.081 34.7144C127.044 35.8276 127.025 36.9038 127.025 37.9429C127.025 38.6665 127.035 39.4272 127.053 40.2251C127.09 41.0229 127.146 41.8208 127.22 42.6187C127.294 43.3979 127.406 44.1401 127.554 44.8452C127.703 45.5503 127.888 46.1812 128.111 46.7378C128.333 47.2759 128.603 47.7026 128.918 48.0181C129.252 48.3335 129.642 48.4912 130.087 48.4912C130.644 48.4912 131.117 48.2686 131.506 47.8232C131.896 47.3594 132.211 46.7378 132.453 45.9585C132.712 45.1792 132.898 44.27 133.009 43.231C133.121 42.1733 133.176 41.0415 133.176 39.8354ZM160.146 25.5298C159.997 28.5171 159.895 31.4766 159.839 34.4082C159.784 37.3213 159.756 40.2529 159.756 43.2031C159.756 44.9473 159.756 46.6729 159.756 48.3799C159.774 50.0869 159.812 51.8125 159.867 53.5566L154.329 53.6958V50.2168C153.772 51.126 153.15 51.8218 152.464 52.3042C151.777 52.7866 151.119 53.1299 150.488 53.334C149.875 53.5566 149.347 53.6772 148.901 53.6958C148.456 53.7329 148.196 53.7515 148.122 53.7515C146.953 53.5103 145.979 53 145.2 52.2207C144.439 51.4229 143.827 50.4395 143.363 49.2705C142.917 48.083 142.602 46.7471 142.417 45.2627C142.231 43.7783 142.138 42.2197 142.138 40.5869C142.138 39.1768 142.194 37.7388 142.305 36.2729C142.417 34.8071 142.556 33.3691 142.723 31.959C142.89 30.5303 143.075 29.1572 143.279 27.8398C143.483 26.5039 143.688 25.2607 143.892 24.1104L149.959 24.2217C149.792 25.3164 149.616 26.5039 149.43 27.7842C149.263 29.0645 149.105 30.3726 148.957 31.7085C148.827 33.0444 148.716 34.3896 148.623 35.7441C148.549 37.0801 148.512 38.3511 148.512 39.5571C148.512 40.6704 148.558 41.7095 148.651 42.6743C148.744 43.6392 148.892 44.4834 149.096 45.207C149.3 45.9121 149.56 46.4688 149.875 46.877C150.209 47.2666 150.618 47.4614 151.1 47.4614C151.731 47.4614 152.25 47.0811 152.659 46.3203C153.067 45.5596 153.382 44.5669 153.605 43.3423C153.846 42.0991 154.004 40.7075 154.078 39.1675C154.171 37.6274 154.217 36.0781 154.217 34.5195C154.217 33.3506 154.199 32.2373 154.162 31.1797C154.125 30.1221 154.087 29.1758 154.05 28.3408C153.995 27.376 153.939 26.4761 153.883 25.6411L160.146 25.5298ZM179.155 52.2485C177.429 52.8423 175.852 53.2319 174.423 53.4175C173.013 53.603 171.854 53.6958 170.944 53.6958C169.812 53.6958 168.82 53.4731 167.966 53.0278C167.113 52.5825 166.371 51.9888 165.74 51.2466C165.127 50.5044 164.617 49.6509 164.209 48.686C163.801 47.7026 163.476 46.6729 163.235 45.5967C162.994 44.5205 162.817 43.4351 162.706 42.3403C162.613 41.2271 162.567 40.1787 162.567 39.1953C162.567 36.7461 162.762 34.4917 163.151 32.4321C163.541 30.354 164.107 28.5635 164.849 27.0605C165.591 25.5576 166.51 24.3887 167.604 23.5537C168.699 22.7002 169.942 22.2734 171.334 22.2734C172.484 22.2734 173.533 22.561 174.479 23.1362C175.425 23.7114 176.232 24.5928 176.9 25.7803C177.568 26.9678 178.079 28.48 178.431 30.3169C178.802 32.1353 178.988 34.2969 178.988 36.8018C178.988 37.5068 178.969 38.2212 178.932 38.9448C178.914 39.6685 178.867 40.4199 178.793 41.1992L168.94 42.5073C169.015 43.1938 169.126 43.8433 169.274 44.4556C169.441 45.0679 169.655 45.6152 169.915 46.0977C170.193 46.5615 170.518 46.9326 170.889 47.2109C171.26 47.4893 171.714 47.6284 172.252 47.6284C173.254 47.6284 174.256 47.5728 175.258 47.4614C176.26 47.3315 177.309 47.1831 178.403 47.0161L179.155 52.2485ZM168.773 37.7759L173.394 36.9131V35.8555C173.394 34.2783 173.273 33.063 173.032 32.2095C172.791 31.3374 172.531 30.6973 172.252 30.2891C171.918 29.8066 171.538 29.5283 171.111 29.4541C170.573 29.5098 170.146 29.7603 169.831 30.2056C169.516 30.6509 169.274 31.2261 169.107 31.9312C168.959 32.6177 168.866 33.397 168.829 34.269C168.792 35.1411 168.773 36.0225 168.773 36.9131V37.7759ZM187.644 50.7734C187.644 51.46 187.579 52.0815 187.449 52.6382C187.319 53.1948 187.124 53.7144 186.864 54.1968C186.623 54.6978 186.317 55.1709 185.946 55.6162C185.593 56.0801 185.176 56.5532 184.693 57.0356L182.634 56.0894C182.764 55.9409 182.894 55.7646 183.023 55.5605C183.135 55.375 183.255 55.1523 183.385 54.8926C183.515 54.6514 183.626 54.3638 183.719 54.0298C182.94 53.8813 182.3 53.5103 181.799 52.9165C181.298 52.3228 181.047 51.6084 181.047 50.7734C181.047 50.3281 181.131 49.9014 181.298 49.4932C181.483 49.085 181.725 48.7324 182.021 48.4355C182.318 48.1387 182.662 47.9067 183.051 47.7397C183.459 47.5542 183.896 47.4614 184.359 47.4614C184.805 47.4614 185.222 47.5542 185.612 47.7397C186.02 47.9067 186.373 48.1387 186.669 48.4355C186.966 48.7324 187.198 49.085 187.365 49.4932C187.551 49.9014 187.644 50.3281 187.644 50.7734Z" fill="white"/>
<path d="M14.2734 72.1172C15.7969 72.1172 17.1094 72.5039 18.2109 73.2773C19.3359 74.0508 20.2734 75.0703 21.0234 76.3359C21.7969 77.5781 22.4062 79.0078 22.8516 80.625C23.3203 82.2422 23.6719 83.9062 23.9062 85.6172C24.1641 87.3047 24.3281 88.957 24.3984 90.5742C24.4922 92.1914 24.5391 93.6445 24.5391 94.9336C24.5391 97.8633 24.3047 100.406 23.8359 102.562C23.3672 104.695 22.7227 106.465 21.9023 107.871C21.1055 109.277 20.1797 110.32 19.125 111C18.0703 111.68 16.957 112.02 15.7852 112.02C15.082 111.949 14.3672 111.785 13.6406 111.527C13.0312 111.293 12.3633 110.941 11.6367 110.473C10.9336 109.98 10.2656 109.289 9.63281 108.398L10.3008 122.812H2.39062V74.7891L9.14062 74.2969V76.2305C9.42188 75.6914 9.73828 75.1758 10.0898 74.6836C10.4648 74.168 10.8633 73.7227 11.2852 73.3477C11.707 72.9727 12.1641 72.6797 12.6562 72.4688C13.1484 72.2344 13.6875 72.1172 14.2734 72.1172ZM16.9805 94.9336C16.9805 94.1367 16.957 93.1992 16.9102 92.1211C16.8867 91.0195 16.8281 89.8828 16.7344 88.7109C16.6406 87.5391 16.5 86.3789 16.3125 85.2305C16.125 84.082 15.8672 83.0625 15.5391 82.1719C15.2344 81.2578 14.8477 80.5195 14.3789 79.957C13.9336 79.3945 13.3828 79.1133 12.7266 79.1133C12.0938 79.1133 11.543 79.4062 11.0742 79.9922C10.6055 80.5547 10.2188 81.3281 9.91406 82.3125C9.63281 83.2969 9.42188 84.4453 9.28125 85.7578C9.14062 87.0469 9.07031 88.4062 9.07031 89.8359C9.07031 90.4922 9.07031 91.3008 9.07031 92.2617C9.09375 93.1992 9.14062 94.1953 9.21094 95.25C9.28125 96.3047 9.39844 97.3594 9.5625 98.4141C9.75 99.4688 9.99609 100.418 10.3008 101.262C10.6289 102.082 11.0391 102.762 11.5312 103.301C12.0469 103.816 12.668 104.074 13.3945 104.074C14.1914 104.074 14.8242 103.816 15.293 103.301C15.7852 102.785 16.1484 102.105 16.3828 101.262C16.6406 100.395 16.8047 99.4102 16.875 98.3086C16.9453 97.207 16.9805 96.082 16.9805 94.9336ZM48.6211 90.8555C48.6211 93.7148 48.4922 96.2227 48.2344 98.3789C47.9766 100.535 47.6016 102.41 47.1094 104.004C46.6406 105.574 46.0664 106.887 45.3867 107.941C44.7305 108.973 43.9922 109.805 43.1719 110.438C42.375 111.07 41.5078 111.516 40.5703 111.773C39.6328 112.031 38.6719 112.16 37.6875 112.16C36.7031 112.16 35.7539 112.055 34.8398 111.844C33.9492 111.633 33.1172 111.246 32.3438 110.684C31.5703 110.121 30.8555 109.359 30.1992 108.398C29.5664 107.438 29.0273 106.207 28.582 104.707C28.1367 103.207 27.7852 101.414 27.5273 99.3281C27.293 97.2422 27.1758 94.793 27.1758 91.9805C27.1758 87.7617 27.4805 84.3047 28.0898 81.6094C28.7227 78.9141 29.543 76.793 30.5508 75.2461C31.5586 73.6758 32.707 72.5977 33.9961 72.0117C35.2852 71.4023 36.6094 71.0977 37.9688 71.0977C38.8359 71.0977 39.7031 71.1914 40.5703 71.3789C41.4609 71.543 42.293 71.8828 43.0664 72.3984C43.8633 72.9141 44.6016 73.6289 45.2812 74.543C45.9609 75.457 46.5469 76.6523 47.0391 78.1289C47.5312 79.582 47.918 81.3516 48.1992 83.4375C48.4805 85.5234 48.6211 87.9961 48.6211 90.8555ZM41.0625 91.1367C41.0625 88.8867 40.9805 87.0469 40.8164 85.6172C40.6523 84.1641 40.4297 83.0156 40.1484 82.1719C39.8672 81.3281 39.5273 80.7539 39.1289 80.4492C38.7305 80.1211 38.2969 79.957 37.8281 79.957C37.2891 79.957 36.8203 80.1914 36.4219 80.6602C36.0234 81.1055 35.6836 81.832 35.4023 82.8398C35.1445 83.8477 34.9453 85.1484 34.8047 86.7422C34.6641 88.3125 34.5938 90.2344 34.5938 92.5078C34.5938 94.8047 34.6758 96.7148 34.8398 98.2383C35.0273 99.7383 35.2734 100.945 35.5781 101.859C35.9062 102.75 36.2812 103.383 36.7031 103.758C37.1484 104.133 37.6172 104.32 38.1094 104.32C39.1406 104.32 39.8906 103.254 40.3594 101.121C40.8281 98.9883 41.0625 95.6602 41.0625 91.1367ZM73.8984 60.9023L73.0195 111.422H66.2695V107.836C65.5898 108.844 64.9336 109.629 64.3008 110.191C63.668 110.73 63.1055 111.129 62.6133 111.387C62.0273 111.691 61.4883 111.879 60.9961 111.949C59.8008 111.949 58.6172 111.598 57.4453 110.895C56.2734 110.168 55.2188 108.973 54.2812 107.309C53.3672 105.645 52.6172 103.465 52.0312 100.77C51.4453 98.0508 51.1523 94.6875 51.1523 90.6797C51.1523 87.6094 51.3984 84.9141 51.8906 82.5938C52.4062 80.25 53.0859 78.293 53.9297 76.7227C54.7734 75.1523 55.7461 73.9688 56.8477 73.1719C57.9492 72.375 59.0977 71.9766 60.293 71.9766C60.9258 72.0234 61.5586 72.1875 62.1914 72.4688C62.7305 72.7266 63.3281 73.1133 63.9844 73.6289C64.6406 74.1445 65.2617 74.8711 65.8477 75.8086L65.3906 61.2539L73.8984 60.9023ZM66.4805 94.0195C66.4336 92.4258 66.375 90.7969 66.3047 89.1328C66.2578 87.4688 66.1055 85.957 65.8477 84.5977C65.5898 83.2148 65.1914 82.0898 64.6523 81.2227C64.1367 80.332 63.3984 79.8867 62.4375 79.8867C61.5469 79.8867 60.8438 80.25 60.3281 80.9766C59.8359 81.7031 59.4609 82.6406 59.2031 83.7891C58.9688 84.9375 58.8281 86.2031 58.7812 87.5859C58.7344 88.9688 58.7109 90.3164 58.7109 91.6289C58.7109 92.543 58.7227 93.5039 58.7461 94.5117C58.793 95.5195 58.8633 96.5273 58.957 97.5352C59.0508 98.5195 59.1914 99.457 59.3789 100.348C59.5664 101.238 59.8008 102.035 60.082 102.738C60.3633 103.418 60.7031 103.957 61.1016 104.355C61.5234 104.754 62.0156 104.953 62.5781 104.953C63.2812 104.953 63.8789 104.672 64.3711 104.109C64.8633 103.523 65.2617 102.738 65.5664 101.754C65.8945 100.77 66.1289 99.6211 66.2695 98.3086C66.4102 96.9727 66.4805 95.543 66.4805 94.0195ZM97.9102 110.051C95.7305 110.801 93.7383 111.293 91.9336 111.527C90.1523 111.762 88.6875 111.879 87.5391 111.879C86.1094 111.879 84.8555 111.598 83.7773 111.035C82.6992 110.473 81.7617 109.723 80.9648 108.785C80.1914 107.848 79.5469 106.77 79.0312 105.551C78.5156 104.309 78.1055 103.008 77.8008 101.648C77.4961 100.289 77.2734 98.918 77.1328 97.5352C77.0156 96.1289 76.957 94.8047 76.957 93.5625C76.957 90.4688 77.2031 87.6211 77.6953 85.0195C78.1875 82.3945 78.9023 80.1328 79.8398 78.2344C80.7773 76.3359 81.9375 74.8594 83.3203 73.8047C84.7031 72.7266 86.2734 72.1875 88.0312 72.1875C89.4844 72.1875 90.8086 72.5508 92.0039 73.2773C93.1992 74.0039 94.2188 75.1172 95.0625 76.6172C95.9062 78.1172 96.5508 80.0273 96.9961 82.3477C97.4648 84.6445 97.6992 87.375 97.6992 90.5391C97.6992 91.4297 97.6758 92.332 97.6289 93.2461C97.6055 94.1602 97.5469 95.1094 97.4531 96.0938L85.0078 97.7461C85.1016 98.6133 85.2422 99.4336 85.4297 100.207C85.6406 100.98 85.9102 101.672 86.2383 102.281C86.5898 102.867 87 103.336 87.4688 103.688C87.9375 104.039 88.5117 104.215 89.1914 104.215C90.457 104.215 91.7227 104.145 92.9883 104.004C94.2539 103.84 95.5781 103.652 96.9609 103.441L97.9102 110.051ZM84.7969 91.7695L90.6328 90.6797V89.3438C90.6328 87.3516 90.4805 85.8164 90.1758 84.7383C89.8711 83.6367 89.543 82.8281 89.1914 82.3125C88.7695 81.7031 88.2891 81.3516 87.75 81.2578C87.0703 81.3281 86.5312 81.6445 86.1328 82.207C85.7344 82.7695 85.4297 83.4961 85.2188 84.3867C85.0312 85.2539 84.9141 86.2383 84.8672 87.3398C84.8203 88.4414 84.7969 89.5547 84.7969 90.6797V91.7695Z" fill="white"/>
<path d="M133.137 110.051C130.957 110.801 128.965 111.293 127.16 111.527C125.379 111.762 123.914 111.879 122.766 111.879C121.336 111.879 120.082 111.598 119.004 111.035C117.926 110.473 116.988 109.723 116.191 108.785C115.418 107.848 114.773 106.77 114.258 105.551C113.742 104.309 113.332 103.008 113.027 101.648C112.723 100.289 112.5 98.918 112.359 97.5352C112.242 96.1289 112.184 94.8047 112.184 93.5625C112.184 90.4688 112.43 87.6211 112.922 85.0195C113.414 82.3945 114.129 80.1328 115.066 78.2344C116.004 76.3359 117.164 74.8594 118.547 73.8047C119.93 72.7266 121.5 72.1875 123.258 72.1875C124.711 72.1875 126.035 72.5508 127.23 73.2773C128.426 74.0039 129.445 75.1172 130.289 76.6172C131.133 78.1172 131.777 80.0273 132.223 82.3477C132.691 84.6445 132.926 87.375 132.926 90.5391C132.926 91.4297 132.902 92.332 132.855 93.2461C132.832 94.1602 132.773 95.1094 132.68 96.0938L120.234 97.7461C120.328 98.6133 120.469 99.4336 120.656 100.207C120.867 100.98 121.137 101.672 121.465 102.281C121.816 102.867 122.227 103.336 122.695 103.688C123.164 104.039 123.738 104.215 124.418 104.215C125.684 104.215 126.949 104.145 128.215 104.004C129.48 103.84 130.805 103.652 132.188 103.441L133.137 110.051ZM120.023 91.7695L125.859 90.6797V89.3438C125.859 87.3516 125.707 85.8164 125.402 84.7383C125.098 83.6367 124.77 82.8281 124.418 82.3125C123.996 81.7031 123.516 81.3516 122.977 81.2578C122.297 81.3281 121.758 81.6445 121.359 82.207C120.961 82.7695 120.656 83.4961 120.445 84.3867C120.258 85.2539 120.141 86.2383 120.094 87.3398C120.047 88.4414 120.023 89.5547 120.023 90.6797V91.7695ZM150.715 110.789C151.23 107.016 151.594 103.195 151.805 99.3281C152.039 95.4609 152.156 91.4062 152.156 87.1641C152.156 85.7344 152.062 84.5977 151.875 83.7539C151.688 82.8867 151.441 82.2305 151.137 81.7852C150.832 81.3164 150.504 81.0234 150.152 80.9062C149.801 80.7656 149.461 80.6953 149.133 80.6953C148.664 80.6953 148.219 80.7773 147.797 80.9414C147.398 81.1055 147.023 81.4219 146.672 81.8906C146.32 82.3594 145.992 83.0156 145.688 83.8594C145.406 84.7031 145.16 85.8164 144.949 87.1992C144.738 88.582 144.574 90.2695 144.457 92.2617C144.363 94.2305 144.316 96.5859 144.316 99.3281C144.316 100.312 144.316 101.344 144.316 102.422C144.316 103.477 144.316 104.484 144.316 105.445C144.34 106.406 144.352 107.262 144.352 108.012C144.375 108.738 144.41 109.254 144.457 109.559L136.512 109.488C136.582 107.355 136.629 105.457 136.652 103.793C136.699 102.105 136.734 100.559 136.758 99.1523C136.781 97.7461 136.793 96.4336 136.793 95.2148C136.816 93.9727 136.828 92.7539 136.828 91.5586C136.828 90.4805 136.816 89.3789 136.793 88.2539C136.793 87.1055 136.781 85.875 136.758 84.5625C136.758 83.25 136.734 81.8203 136.688 80.2734C136.664 78.7031 136.629 76.9688 136.582 75.0703L144.809 74.8594L144.668 78.4453C145.301 77.25 145.98 76.3008 146.707 75.5977C147.434 74.8711 148.148 74.3086 148.852 73.9102C149.578 73.5117 150.281 73.2539 150.961 73.1367C151.641 72.9961 152.25 72.9258 152.789 72.9258C154.242 72.9258 155.438 73.4297 156.375 74.4375C157.312 75.4453 158.051 76.793 158.59 78.4805C159.152 80.1445 159.539 82.0547 159.75 84.2109C159.961 86.3672 160.066 88.6055 160.066 90.9258C160.066 92.6133 160.02 94.3242 159.926 96.0586C159.855 97.793 159.762 99.5039 159.645 101.191C159.551 102.855 159.434 104.473 159.293 106.043C159.176 107.59 159.07 109.031 158.977 110.367L150.715 110.789ZM176.344 63.5391C176.156 65.4375 175.992 67.2891 175.852 69.0938C175.711 70.875 175.582 72.6562 175.465 74.4375C176.355 74.3906 177.234 74.3555 178.102 74.332C178.992 74.2852 179.895 74.2148 180.809 74.1211L180.562 81.2578C179.672 81.2109 178.758 81.1875 177.82 81.1875C176.906 81.1875 176.004 81.1875 175.113 81.1875C174.926 84.5625 174.785 87.8672 174.691 91.1016C174.621 94.3125 174.586 97.5586 174.586 100.84C174.586 102.527 174.598 104.227 174.621 105.938C174.668 107.625 174.715 109.336 174.762 111.07L167.027 111.211C167.191 106.172 167.332 101.191 167.449 96.2695C167.566 91.3242 167.625 86.3438 167.625 81.3281C166.734 81.375 165.832 81.4219 164.918 81.4688C164.004 81.4922 163.102 81.5391 162.211 81.6094L162.492 73.9102C163.312 74.0273 164.156 74.1211 165.023 74.1914C165.891 74.2617 166.734 74.3203 167.555 74.3672C167.555 72.5391 167.531 70.7461 167.484 68.9883C167.461 67.2305 167.414 65.4375 167.344 63.6094L176.344 63.5391ZM203.941 89.3438C203.191 89.4609 202.406 89.6016 201.586 89.7656C200.883 89.9062 200.086 90.0938 199.195 90.3281C198.305 90.5625 197.414 90.832 196.523 91.1367C196.758 89.9648 196.91 88.9453 196.98 88.0781C197.074 87.1875 197.121 86.3789 197.121 85.6523C197.121 84.3867 197.004 83.4023 196.77 82.6992C196.559 81.9727 196.312 81.4336 196.031 81.082C195.75 80.7305 195.469 80.5195 195.188 80.4492C194.93 80.3789 194.754 80.3438 194.66 80.3438C193.91 80.3438 193.301 80.6602 192.832 81.293C192.363 81.9023 192 82.7227 191.742 83.7539C191.484 84.7617 191.309 85.9219 191.215 87.2344C191.121 88.5469 191.074 89.8945 191.074 91.2773C191.074 92.2617 191.086 93.2461 191.109 94.2305C191.133 95.2148 191.168 96.1992 191.215 97.1836L191.707 111L183.586 111.562C183.586 105.914 183.527 100.828 183.41 96.3047C183.316 91.7578 183.211 87.8789 183.094 84.668C182.953 80.918 182.801 77.5781 182.637 74.6484L189.562 74.1914L189.914 78.1641C190.523 76.6641 191.238 75.4805 192.059 74.6133C192.902 73.7227 193.734 73.0664 194.555 72.6445C195.398 72.1992 196.16 71.918 196.84 71.8008C197.543 71.6836 198.07 71.625 198.422 71.625C199.617 71.625 200.59 72.0117 201.34 72.7852C202.09 73.5352 202.676 74.5078 203.098 75.7031C203.52 76.8984 203.801 78.2109 203.941 79.6406C204.105 81.0703 204.188 82.4531 204.188 83.7891C204.188 84.8438 204.152 85.8516 204.082 86.8125C204.035 87.75 203.988 88.5938 203.941 89.3438ZM227.426 88.6055C227.426 92.3086 227.402 96.0117 227.355 99.7148C227.332 103.418 227.262 107.273 227.145 111.281L221.027 110.93V106.184C220.324 107.449 219.527 108.422 218.637 109.102C217.746 109.758 216.902 110.25 216.105 110.578C215.168 110.953 214.242 111.164 213.328 111.211C212.203 111.211 211.148 110.965 210.164 110.473C209.18 109.957 208.324 109.277 207.598 108.434C206.871 107.59 206.297 106.629 205.875 105.551C205.477 104.449 205.277 103.312 205.277 102.141C205.277 100.805 205.559 99.4922 206.121 98.2031C206.707 96.8906 207.691 95.707 209.074 94.6523C210.926 93.2227 212.531 92.0273 213.891 91.0664C215.25 90.1055 216.375 89.2383 217.266 88.4648C218.18 87.668 218.848 86.918 219.27 86.2148C219.715 85.4883 219.938 84.6562 219.938 83.7188C219.938 82.1719 219.68 81.0234 219.164 80.2734C218.648 79.5 217.969 79.1133 217.125 79.1133C216.609 79.1133 216.164 79.2539 215.789 79.5352C215.438 79.793 215.145 80.1445 214.91 80.5898C214.699 81.0117 214.535 81.4922 214.418 82.0312C214.324 82.5469 214.277 83.0625 214.277 83.5781C214.277 83.9297 214.289 84.3164 214.312 84.7383C214.359 85.1602 214.441 85.6055 214.559 86.0742L206.473 86.2148C206.426 85.8164 206.391 85.4414 206.367 85.0898C206.344 84.7148 206.332 84.3516 206.332 84C206.332 82.5469 206.578 81.1172 207.07 79.7109C207.562 78.2812 208.277 77.0156 209.215 75.9141C210.176 74.7891 211.336 73.8867 212.695 73.207C214.055 72.5273 215.613 72.1875 217.371 72.1875C219.645 72.1875 221.438 72.668 222.75 73.6289C224.086 74.5664 225.094 75.8086 225.773 77.3555C226.477 78.9023 226.922 80.6602 227.109 82.6289C227.32 84.5742 227.426 86.5664 227.426 88.6055ZM219.516 98.5547C219.633 97.9688 219.738 97.3008 219.832 96.5508C219.926 95.918 220.008 95.1562 220.078 94.2656C220.148 93.3516 220.207 92.332 220.254 91.207C219.879 91.7227 219.516 92.1797 219.164 92.5781C218.812 92.9766 218.484 93.3281 218.18 93.6328C217.828 93.9844 217.5 94.3008 217.195 94.582C216.656 95.0273 216.082 95.5312 215.473 96.0938C214.863 96.6328 214.301 97.207 213.785 97.8164C213.293 98.4258 212.871 99.0586 212.52 99.7148C212.191 100.348 212.027 100.969 212.027 101.578C212.027 102.234 212.25 102.844 212.695 103.406C213.141 103.945 213.691 104.215 214.348 104.215C214.84 104.215 215.344 104.074 215.859 103.793C216.398 103.512 216.902 103.113 217.371 102.598C217.863 102.082 218.297 101.484 218.672 100.805C219.047 100.125 219.328 99.375 219.516 98.5547ZM252.598 89.3438C251.848 89.4609 251.062 89.6016 250.242 89.7656C249.539 89.9062 248.742 90.0938 247.852 90.3281C246.961 90.5625 246.07 90.832 245.18 91.1367C245.414 89.9648 245.566 88.9453 245.637 88.0781C245.73 87.1875 245.777 86.3789 245.777 85.6523C245.777 84.3867 245.66 83.4023 245.426 82.6992C245.215 81.9727 244.969 81.4336 244.688 81.082C244.406 80.7305 244.125 80.5195 243.844 80.4492C243.586 80.3789 243.41 80.3438 243.316 80.3438C242.566 80.3438 241.957 80.6602 241.488 81.293C241.02 81.9023 240.656 82.7227 240.398 83.7539C240.141 84.7617 239.965 85.9219 239.871 87.2344C239.777 88.5469 239.73 89.8945 239.73 91.2773C239.73 92.2617 239.742 93.2461 239.766 94.2305C239.789 95.2148 239.824 96.1992 239.871 97.1836L240.363 111L232.242 111.562C232.242 105.914 232.184 100.828 232.066 96.3047C231.973 91.7578 231.867 87.8789 231.75 84.668C231.609 80.918 231.457 77.5781 231.293 74.6484L238.219 74.1914L238.57 78.1641C239.18 76.6641 239.895 75.4805 240.715 74.6133C241.559 73.7227 242.391 73.0664 243.211 72.6445C244.055 72.1992 244.816 71.918 245.496 71.8008C246.199 71.6836 246.727 71.625 247.078 71.625C248.273 71.625 249.246 72.0117 249.996 72.7852C250.746 73.5352 251.332 74.5078 251.754 75.7031C252.176 76.8984 252.457 78.2109 252.598 79.6406C252.762 81.0703 252.844 82.4531 252.844 83.7891C252.844 84.8438 252.809 85.8516 252.738 86.8125C252.691 87.75 252.645 88.5938 252.598 89.3438ZM264.059 60.0234C263.402 66.5156 262.887 73.0664 262.512 79.6758C262.137 86.2852 261.914 92.7891 261.844 99.1875L257.168 99.3281C257.004 92.8828 256.781 86.3438 256.5 79.7109C256.242 73.0781 255.938 66.5391 255.586 60.0938L264.059 60.0234ZM263.426 108.047C263.426 108.609 263.309 109.137 263.074 109.629C262.863 110.121 262.57 110.555 262.195 110.93C261.844 111.281 261.41 111.562 260.895 111.773C260.402 111.984 259.875 112.09 259.312 112.09C258.75 112.09 258.223 111.984 257.73 111.773C257.262 111.562 256.84 111.281 256.465 110.93C256.09 110.555 255.797 110.121 255.586 109.629C255.375 109.137 255.27 108.609 255.27 108.047C255.27 107.484 255.375 106.969 255.586 106.5C255.797 106.008 256.09 105.574 256.465 105.199C256.84 104.824 257.262 104.531 257.73 104.32C258.223 104.109 258.75 104.004 259.312 104.004C259.875 104.004 260.402 104.109 260.895 104.32C261.41 104.531 261.844 104.824 262.195 105.199C262.57 105.574 262.863 106.008 263.074 106.5C263.309 106.969 263.426 107.484 263.426 108.047Z" fill="#FAFF00"/>
</svg>
